<mxfile host="app.diagrams.net" agent="Mozilla/5.0 (Windows NT 10.0; Win64; x64) AppleWebKit/537.36 (KHTML, like Gecko) Chrome/135.0.0.0 Safari/537.36 Edg/135.0.0.0" version="26.2.14">
  <diagram name="Page-1" id="7kXt-IaZAIrRKN0_NEyr">
    <mxGraphModel dx="2829" dy="1267" grid="1" gridSize="10" guides="1" tooltips="1" connect="1" arrows="1" fold="1" page="1" pageScale="1" pageWidth="827" pageHeight="1169" math="0" shadow="0">
      <root>
        <mxCell id="0" />
        <mxCell id="1" parent="0" />
        <mxCell id="Bnx4yGOkbPhiIPonUfCJ-1" value="" style="shape=image;verticalLabelPosition=bottom;labelBackgroundColor=default;verticalAlign=top;aspect=fixed;imageAspect=0;image=data:image/png,iVBORw0KGgoAAAANSUhEUgAAB18AAAHRCAYAAAAlunBqAAAAAXNSR0IArs4c6QAAAARnQU1BAACxjwv8YQUAAAAJcEhZcwAADsMAAA7DAcdvqGQAAEqOSURBVHhe7d0JvB3j/Qfgt3ayiSWrBIkkEhFbaBC1xr7v1K6U1laqai3+dmpvKbWralGUip1Yo8QWe0J2iSSSCEEQ/vedO2nOOffcNe+9Ep7HZz6575w5k5k57mTOfOf3vj8ZcMhe3wWA+VTPFbqEUw48NG8B/DiMfn9YuP3ay/IWwA9f15VXDYedeHbeAgD44fjuu6q350vnFbbLLV+d+iw7Lxg0aFAYMGBA3gKYfy2Q/wkAAAAAAHzPfvKTn+Q/VSpsx59Lp+qUW3ZenwB+CISvAAAAAADwPagudCwMJGubFlhggTpN5d47r00APwTCVwAAAAAA+B7VFj6mCCgL1zGvTgA/BMJXAAAAAACYB9QlgCwNLMtNAHx/hK8AAAAAADCPSBGgFgax88sE8EMhfAUAAAAAgHmMYBJg/iR8BQAAAACAeVhhECuMBZi3CV8BAAAAAGA+UhrG/lAmgB8C4SsAAAAAAABAAsJXAAAAAAAAgASErwAAAAAAAAAJCF8BAAAAAAAAEhC+AgAAAAAAACQgfAUAAAAAAABIQPgKAAAAAAAAkIDwFQAAAAAAACAB4SsAAAAAAABAAsJXAAAAAAAAgASErwAAAAAAAAAJCF8BAAAAAAAAEhC+AgAAAAAAACQgfAUAAAAAAABIQPgKAAAAAAAAkIDwFQAAAAAAACAB4SsAAAAAAABAAsJXAAAAAAAAgASErwAAAAAAAAAJCF8BAAAAAAAAEhC+AgAAAAAAACQgfAUAAAAAAABIQPgKAAAAAAAAkIDwFQAAAAAAACAB4SsAAAAAAABAAsJXAAAAAAAAgASErwAAAAAAAAAJCF8BAAAAAAAAEhC+AgAAAAAAACQgfAUAAAAAAABIQPgKAAAAAAAAkIDwFQAAAAAAACAB4SsAAAAAAABAAsJXAAAAAAAAgASErwAAAAAAAAAJCF8BAAAAAAAAEhC+AgAAAAAAACQgfAUAAAAAAABIQPgKAAAAAAAAkIDwFQAAAAAAACAB4SsAAAAAAABAAsJXAAAAAAAAgASErwAAAAAAAAAJCF8BAAAAAAAAEhC+AgAAAAAAACQgfAUAAAAAAABIQPgKAAAAAAAAkIDwFQAAAAAAACAB4SsAAAAAAABAAsJXAAAAAAAAgASErwAAAAAAAAAJCF8BAAAAAAAAEhC+AgAAAAAAACQgfAUAAAAAAABIQPgKAAAAAAAAkIDwFQAAAAAAACAB4SsAAAAAAABAAsJXAAAAAAAAgASErwAAAAAAAAAJCF8BAAAAAAAAEhC+AgAAAAAAACQgfAUAAAAAAABIQPgKAAAAAAAAkIDwFQAAAAAAACAB4SsAAAAAAABAAsJXAAAAAAAAgASErwAAAAAAAAAJCF8BAAAAAAAAEhC+AgAAAAAAACQgfAUAAAAAAABIQPgKAAAAAAAAkIDwFQAAAAAAACAB4SsAAAAAAABAAsJXAAAAAAAAgASErwAAAAAAAAAJCF8BAAAAAAAAEhC+AgAAAAAAACQgfAUAAAAAAABIQPgKAAAAAAAAkIDwFQAAAAAAACAB4SsAAAAAAABAAsJXAAAAAAAAgASErwAAAAAAAAAJCF8BAAAAAAAAEhC+AgAAAAAAACQgfAUAAAAAAABIQPgKAAAAAAAAkIDwFQAAAAAAACAB4SsAAAAAAABAAsJXAAAAAAAAgASErwAAAAAAAAAJCF8BAAAAAAAAEhC+AgAAAAAAACQgfAUAAAAAAABIQPgKAAAAAAAAkIDwFQAAAAAAACAB4SsAAAAAAABAAsJXAAAAAAAAgASErwAAAAAAAAAJCF8BAAAAAAAAEhC+AgAAAAAAACQgfAUAAAAAAABIQPgKAAAAAAAAkIDwFQAAAAAAACAB4SsAAAAAAABAAsJXAAAAAAAAgASErwAAAAAAAAAJCF8BAAAAAAAAEhC+AgAAAAAAACQgfAUAAAAAAABIQPgKAAAAAAAAkIDwFQAAAAAAACAB4SsAAAAAAABAAsJXAAAAAAAAgASErwAAAAAAAAAJCF8BAAAAAAAAEhC+AgAAAAAAACQgfAUAAAAAAABIQPgKAAAAAAAAkIDwFQAAAAAAACAB4SsAAAAAAABAAsJXAAAAAAAAgASErwAAAAAAAAAJCF8BAAAAAAAAEhC+AgAAAAAAACQgfAUAAAAAAABIQPgKAAAAAAAAkIDwFQAAAAAAACAB4SsAAAAAAABAAsJXAAAAAAAAgASErwAAAAAAAAAJCF8BAAAAAAAAEhC+AgAAAAAAACQgfAUAAAAAAABIQPgKAAAAAAAAkIDwFQAAAAAAACAB4SsAAAAAAABAAsJXAAAAAAAAgASErwAAAAAAAAAJCF8BAAAAAAAAEhC+AgAAAAAAACQgfAUAAAAAAABIQPgKAAAAAAAAkIDwFQAAAAAAACAB4SsAAAAAAABAAsJXAAAAAAAAgASErwAAAAAAAAAJCF8BAAAAAAAAEhC+AgAAAAAAACQgfAUAAAAAAABIQPgKAAAAAAAAkIDwFQAAAAAAACAB4SsAAAAAAABAAsJXAAAAAAAAgASErwAAAAAAAAAJCF8BAAAAAAAAEhC+AgAAAAAAACQgfAUAAAAAAABIQPgKAAAAAAAAkIDwFQAAAAAAACAB4SsAAAAAAABAAsJXAAAAAAAAgASErwAAAAAAAAAJCF8BAAAAAAAAEhC+AgAAAAAAACQgfAUAAAAAAABIQPgKAAAAAAAAkIDwFQAAAAAAACAB4SsAAAAAAABAAsJXAAAAAAAAgASErwAAAAAAAAAJCF8BAAAAAAAAEhC+AgAAAAAAACQgfAUAAAAAAABIQPgKAAAAAAAAkIDwFQAAAAAAACAB4SsAAAAAAABAAsJXAAAAAAAAgASErwAAAAAAAAAJCF8BAAAAAAAAEhC+AgAAAAAAACQgfAUAAAAAAABIQPgKAAAAAAAAkIDwFQAAAAAAACAB4SsAAAAAAABAAsJXAAAAAAAAgASErwAAAAAAAAAJCF8BAAAAAAAAEhC+AgAAAAAAACQgfAUAAAAAAABIQPgKAAAAAAAAkIDwFQAAAAAAACAB4SsAAAAAAABAAsJXAAAAAAAAgASErwAAAAAAAAAJCF8BAAAAAAAAEhC+AgAAAAAAACQgfAUAAAAAAABIQPgKAAAAAAAAkIDwFQAAAAAAACAB4SsAAAAAAABAAsJXAAAAAAAAgASErwAAAAAAAAAJCF8BAAAAAAAAEhC+AgAAAAAAACQgfAUAAAAAAABIQPgKAAAAAAAAkIDwFQAAAAAAACAB4SsAAAAAAABAAsJXAAAAAAAAgASErwAAAAAAAAAJCF8BAAAAAAAAEhC+AgAAAAAAACQgfAUAAAAAAABIQPgKAAAAAAAAkIDwFQAAAAAAACAB4SsAAAAAAABAAsJXAAAAAAAAgASErwAAAAAAAAAJCF8BAAAAAAAAEhC+AgAAAAAAACQgfAUAAAAAAABIQPgKAAAAAAAAkIDwFQAAAAAAACAB4SsAAAAAAABAAsJXAAAAAAAAgASErwAAAAAAAAAJCF8BAAAAAAAAEhC+AgAAAAAAACQgfAUAAAAAAABIQPgKAAAAAAAAkIDwFQAAAAAAACAB4SsAAAAAAABAAsJXAAAAAAAAgASErwAAAAAAAAAJCF8BAAAAAAAAEhC+AgAAAAAAACQgfAUAAAAAAABIQPgKAAAAAAAAkIDwFQAAAAAAACAB4SsAAAAAAABAAsJXAAAAAAAAgASErwAAAAAAAAAJCF8BAAAAAAAAEhC+AgAAAAAAACQgfAUAAAAAAABIQPgKAAAAAAAAkIDwFQAAAAAAACAB4SsAAAAAAABAAsJXAAAAAAAAgASErwAAAAAAAAAJCF8BAAAAAAAAEhC+AgAAAAAAACQgfAUAAAAAAABIQPgKAAAAAAAAkIDwFQAAAAAAACAB4SsAAAAAAABAAsJXAAAAAAAAgASErwAAAAAAAAAJCF8BAAAAAAAAEhC+AgAAAAAAACQgfAUAAAAAAABIQPgKAAAAAAAAkIDwFQAAAAAAACAB4SsAAAAAAABAAsJXAAAAAAAAgASErwAAAAAAAAAJCF8BAAAAAAAAEhC+AgAAAAAAACQgfAUAAAAAAABIQPgKAAAAAAAAkIDwFQAAAAAAACAB4SsAAAAAAABAAsJXAAAAAAAAgASErwAAAAAAAAAJCF8BAAAAAAAAEhC+AgAAAAAAACQgfAUAAAAAAABIQPgKAAAAAAAAkIDwFQAAAAAAACAB4SsAAAAAAABAAsJXAAAAAAAAgASErwAAAAAAAAAJCF8BAAAAAAAAEhC+AgAAAAAAACQgfAUAAAAAAABIQPgKAAAAAAAAkIDwFQAAAAAAACAB4SsAAAAAAABAAsJXAAAAAAAAgASErwAAAAAAAAAJCF8BAAAAAAAAEhC+AgAAAAAAACQgfAUAAAAAAABIQPgKAAAAAAAAkIDwFQAAAAAAACAB4SsAAAAAAABAAsJXAAAAAAAAgASErwAAAAAAAAAJCF8BAAAAAAAAEhC+AgAAAAAAACQgfAUAAAAAAABIQPgKAAAAAAAAkIDwFQAAAAAAACAB4SsAAAAAAABAAsJXAAAAAAAAgASErwAAAAAAAAAJCF8BAAAAAAAAEhC+AgAAAAAAACQgfAUAAAAAAABIQPgKAAAAAAAAkIDwFQAAAAAAACAB4SsAAAAAAABAAsJXAAAAAAAAgASErwAAAAAAAAAJCF8BAAAAAAAAEhC+AgAAAAAAACQgfAUAAAAAAABIQPgKAAAAAAAAkIDwFQAAAAAAACAB4SsAAAAAAABAAsJXAAAAAAAAgASErwAAAAAAAAAJCF8BAAAAAAAAEhC+AgAAAAAAACQgfAUAAAAAAABIQPgKAAAAAAAAkIDwFQAAAAAAACAB4SsAAAAAAABAAsJXAAAAAAAAgASErwAAAAAAAAAJCF8BAAAAAAAAEhC+AgAAAAAAACQgfAUAAAAAAABIQPgKAAAAAAAAkIDwFQAAAAAAACAB4SsAAAAAAABAAsJXAAAAAAAAgASErwAAAAAAAAAJCF8BAAAAAAAAEhC+AgAAAAAAACQgfAUAAAAAAABIQPgKAAAAAAAAkIDwFQAAAAAAACAB4SsAAAAAAABAAsJXAAAAAAAAgASErwAAAAAAAAAJCF8BAAAAAAAAEhC+AgAAAAAAACQgfAUAAAAAAABIQPgKAAAAAAAAkIDwFQAAAAAAACAB4SsAAAAAAABAAsJXAAAAAAAAgASErwAAAAAAAAAJCF8BAAAAAAAAEhC+AgAAAAAAACQgfAUAAAAAAABIQPgKAAAAAAAAkIDwFQAAAAAAACAB4SsAAAAAAABAAsJXAAAAAAAAgASErwAAAAAAAAAJCF8BAAAAAAAAEhC+AgAAAAAAACQgfAUAAAAAAABIQPgKAAAAAAAAkIDwFQAAAAAAACAB4SsAAAAAAABAAsJXAAAAAAAAgASErwAAAAAAAAAJCF8BAAAAAAAAEhC+AgAAAAAAACQgfAUAAAAAAABIQPgKAAAAAAAAkIDwFQAAAAAAACAB4SsAAAAAAABAAsJXAAAAAAAAgASErwAAAAAAAAAJCF8BAAAAAAAAEhC+AgAAAAAAACQgfAUAAAAAAABIQPgKAAAAAAAAkIDwFQAAAAAAACAB4SsAAAAAAABAAsJXAAAAAAAAgASErwAAAAAAAAAJCF8BAAAAAAAAEhC+AgAAAAAAACQgfAUAAAAAAABIQPgKAAAAAAAAkIDwFQAAAAAAACAB4SsAAAAAAABAAsJXAAAAAAAAgASErwAAAAAAAAAJCF8BAAAAAAAAEhC+AgAAAAAAACQgfAUAAAAAAABIQPgKAAAAAAAAkIDwFQAAAAAAACAB4SsAAAAAAABAAsJXAAAAAAAAgASErwAAAAAAAAAJCF8BAAAAAAAAEhC+AgAAAAAAACQgfAUAAAAAAABIQPgKAAAAAAAAkIDwFQAAAAAAACCBnww4ZK/v8p9pRL894LCw/hp9wwI/Kc67X3v3rXDany7KW+WtvvIq4eh9Dg5LtVwyn1N3X8z8Mlz9z1vCky8+n8+p2TKtlwr7brdLWLPnqhU/tw4LLrBgNv+7777L1jVy3Jhw/6DHwqODn87m1yZu9ybrrJ+36qe2Y3PWkb8Lq3ZbOW/VzyPPPxWu/PuNeat61R2PaNa3s8KkKVPC00NeCHc//mCYPHVK/gpNqecKXcIpBx6at2hqTz39TDj6N8fnrYa57JILw8826J+3avfNN9+EE08+LTz62BP5nEoLLbxQuPjC88MG/dfL59TN5MkfhwN/8cswduy4fE79bbft1uHM00/NWzX76KOJ4fobbw533PWvor9z4Yrt77/++uEXBx0QNtl4w7DggnPON+V8/vnn4ZhjfxdefGlIPqf+1u67Vrj04gvCEksskc8p76233w7H/e7EMGH8R/mcSvX97Ehn9PvDwu3XXpa3aGxHnf7H0Kb9cnmrYaZXXCfcccOVYcS7b+ZzarfuJluFzXbYMyy62GL5nEp1XdfBx54WVuyxSt6qnyHPPB7uvuUveWuOuL7dDjwitKy4RmqohhyLQnv84ujQu++64Sc/+Uk+p9L7bw8NN1x6Vt6qqq7bHq97P/1kavhixozw4ZgR4c0hg8M7rzf8XEsaXVdeNRx24tl5i+/DjIrfiYMPPjg899xz+Zz6O+mkk8Jhhx2WtypNnDgx7LLLLmHUqFH5nPq7/vrrw2abbZa3KjXWeh999NFw0EEH5a36W3755cNdd90V2rRpk8+pdPXVV4dzzjknb9XfeuutF6677rrQrFmzfE6lxlov/Bg471Vy3qMpPfnkk2HjjTfOWzSVFi1ahBNPPDHsvPPOYYUVVgiLLrpo/koIM2fODCNHjgz/+te/wrnnnhs+/fTT/JX62WKLLcKxxx4b+vbtG1q3bv2/73Px+9fUqVPDSy+9FC6++OLw0EMPZfPrq1+/fuHoo4/O/v9ZZpll/ndfLft+V7HNb7zxRnZ+uOWWW7L5DXHccceFfffdN3Tr1q3oXlq8Vzlu3LjwyCOPhDPOOCOMHTs2f6V+GnsfmuJzZg7haxPYdsPNwkE77Rmal7m5/co7b4QTLq75gmCzfhuEI/c+MCxecuOtLr748stwxW031Cks3X2L7cKeW21fsZ01X1zE0PG1d98OV91+Uxg1vuaw4vxjTwprrNw7b9VPbcfm2jMuDMu375i36ufBZ54MF998Td4qb5cBW4c9ttw+LNmiZT6netM+nR7+8eC/w12PPJDPoakIX79fDz3yaNh3/4PzVsPcctN1YYsBxV/uavLesOFhux12CVOnTcvnzHHQgfuFc886s8oN+ZrEMHSrbXcIY8d9mM+pv9132yVcednFeau8r7/+Jlzxp6vCeRfU/MBNtMbqq4U/X3lp6NqlSz6nqngj4Of7HRSee35wPqf+1lu3X/jbzddX+6Vy1qxZWVB8+plnZdtfqr6fHekIX5vWb8/5U2jbsVPeaphPpn4cbr/mkjD8rdfzOTWLf9/PDz8+tO+0Qj5njrqua262+7+DHgl3XH9F3ppjpV59wp6H/ia0ar10Pqf+6nssCsVAeqvd9guLl7leHfbWa+Ga86t/EKah2x6/6E77eFJ4/vGB4Yn/3JXPpakJX79/n332Wdh2223DoEGD8jn1d95554UTTjghb1UaP358dqNp9OjR+Zz6+/e//x222267vFWpsdZ73333he233z5v1V/nzp3D4MGDQ/v27fM5lc4///zw+9//Pm/V34Ybbhjuv//+0Lx583xOpcZaL/wYOO9Vct6jKQlfm94+++wTTj/99NClS5ca76fF70UffPBBtuytt96az61dDPyuuuqq7OGQxWrJN7788svsYY3DDz+8XuHfJZdcEg488MDQqlWrfE55MSSN/4/FgPOtt97K59Zuo402Cn/84x/DGmusUes9x/ggTDwPxSC5Php7Hxr7c6Yq3Q43suXatg/bbrhp2eC1rpZqtWRYYMHG/aiO2OuAsN/2u9YavEax+nPNnr3DiYccWWv42aIO62uIHit0DYstskjeSi8ejwN33KNOwWsUl4vLxwloXM8PfqFs8Bo9/MhjYcJHxdWZ84JYpXr0sb+tU/AavfLqa2HLrXcIL7/yaj6n6X1Y8cX9wIN/GU4+9fSywSvQuDbccqfQtmPnvFV/nVbsFhYpeIr1h2DZdh1Dv423LBu8Nqb4xbT1Mm2y0PfI0y4Ky3ftkb8CAAAw/4qV+Zdddlno2rVrraFifD0ud8UVV1Sp6K9ODF7vvPPOsPfee9cavEZxmbhsrL6M762LG2+8MRxxxBG1hpbRQgstlFX3//3vfw+9evXK59Zsq622yv6ONddcs9ZjFMUq/7PPPjub6qqx96GxP2fKE742sh032SKs0GHuKiVixeuCJd0Vp7TnltuHLfpvFBZZeOF8Tt2s2LFTOHzP/WusyF144cYJSLNjUkuXnA1V3fGIT33M+OLzMGbCh2H6jM/Ct99+m79SKS6/3UYDskpnoHHEJ+AeGFjc/UjhRUPsxnfwC//NW/OGeO4457wLw5133Z3PqZtPpk8PvzrimLnqDrkh4vbGEHuDjTYLDz78SD4XaEqr99sgrLLWT8MCCzT8+m/RxRcPCzTStdL3pf+AbUO75ZbPW00v/nvTuWv38PNfHR9W7rNWPhcAAGD+E0PFk08+OSy1VNVhWb744ous8jT+WWrJJZfM3hffX5srr7wybLrpplUCv9jTWuxdIE7x50Jx2Vj9HN9bmxhw7rHHHlkgWSi7jz9jRrYPsVK01KqrrpqFkbUFvDHcjD0YxO7TS8VueuP6Y8FF/PsKxRD5V7/6VZ3Cy8beh6b4nClPt8ONaP011s7GPK2perIu3Q4fs88vwlYbbPy/k9Rnn88I/3zwvjB52tSsXZNvZn0T3hj+brXjkfbsslI48RdHhnbLLJvPqfzFHj95YrjnsYfCQ889mXVdvFqPXuHn2+wU+nTvWXQj8Kuvvw633v+vcPvAe/M5c/TutnI46RdHZOOmzvby22+ER5+v23ixk6dNCa++U34ssDiO7JE/PzA0W7yyojhu8+MvPBuGvDU0a9cmBqjvjnw/b80RK5XP/PVvw3LtirtCicfv5vvuzLornq3vKn3CL3ffN3Ru16HoH5AR48aE/7v60jD2o/H5HBqTboe/X6XdDseLi5uuvyb06tkzn1O7JZdsVTTGQE3eeefdsN2Ou2bBZNSmzbKh58orh0FPzTmv7LTD9uFPV1xS5aKlOuW6HT72mCPDgfvvl7dqt9jii4VWLcuf6+O27bH3fkUPbLRo0Tycf85Z2Vixcd/jOeztd94JRxx1bHjjzeIuQ6rrSrlct8Nxfef83xl5q3aLLLJwdjFVuO7HHn8y7LXP/nmrUhyPdsstNg8DH3y46IJPt8PfH90ON62eq/UNSzSv21O3Uacu3cNPN9q84jw050Gu8WNHhVuuOC9MmlDzAxWLLrZ4+MVvTw8rdKv+PFqXbnvXWHfDsPP+h1ecn+ZcK73y/KDw3huvZO3aTPxwbBgzYljemqNc172TP/owPHrvP/JW7b6q+JIat2Pml1W/4FWn91rrhl0O+FVo3rL6J4Eb0u1wuW1v1rxl6LB8l6zL57YdOoUFy/x7Mn7MyPC3qy4MH1Vc99E0dDv8/SvX/eauu+4aLr/88rxVu3hzqLQbx3LdZJ5yyinZDau6iuOGlVZTNNZ6S7vfXHzxxcPdd98d+vTpk8+pWXyIeOmll67yMHFpN5kdOnQIDzzwQJUxEquzyCKLZDfVSq8ZG2u98GPgvFfJeY+mpNvhphPHVh0wYEDR/+sxiPvTn/6UjZscf47nsDh29a9//esqId9jjz1WZYzoQnGs6Isuuig7r8wWv5cOGTIkHH/88dlnHcUufS+88MKw1lprFW3LtGnTwu9+97tw7bXX5nOKbbLJJlnFaKdOxYVvw4cPD6eeemq4/fbbs3YMUGMXwHFbC89DX331VXa+OO200/I5VcXxn/fff/8q77vtttuyv2P22K7HHHNMNpZq6Xlm6NCh2b8b7733Xj6nWFPsQ2N/zlSv8copf+RiZeYOG29eFLzO/PqrLKysr3jTu/CX48uvZoZ3Rr6fjeNa2/Tki89XG7xGA9b9WWi79DJ5q1IMD/9w5UXhnscfzILX6LV33wq/u/jsbH3xJDlbrPZcp/dqeatYfK20YmPix5PLbme5qbrgNVq4ZN3xCZkJH08qu55yU7ngNeq/5jqhTcnxiMfvklv+WhS8Ri+9+Xo46+pLs+NVqGObdtl64Mconqvil5S2bdvUeapr8Bo9+/zg/wWvUY/u3cOee+yWtyo9+/zzYdxcjN8axTFQy21rdVN1wWus1P3z1dcWBa9x2Ttu/1vYdZed/rfv8bjFwPqeu/4Z+v20+PwxcODDYcyYug3UH78El9u+6qZ4AVz470sUH9op1G2lruGRB+8PRx3xq+zcCz9Gb7/2Uhjy7BN1mt4YMjgLTguD11nffBPerJhfW/AabbLdblmXwbPF80d9QsrZFqr4ff1JQc8p31ZcK02Z9FHZbS43lQteqzPrm1ll11HdNPSl5+q1TzGQXn+zbYqC168rvmR+U3FtPbfKbftTD92bhduXnHp0uOqcE7OQu7THk1iBGz8r+LFbYoklsjH86jrVdfy8uFy591c3lQYF1WmM9cZrqWWWWabs+8tN8aZcaQBRTnyQMC5bbh3lphhslF7XldNY64UfC+c95z34IYhd+6699tpF/6/He1ixq9kYIsZALop/xnacH18vFMPSQw45JG9VtfPOOxcFr1EMI2OYOTt4jeLPcV58rVAsFogVodXZbbfdQseOxUMixjD0qKOO+l9oGcVxUeOyTzzxRHGuscgiYccddwzdu3fP5xSLD7PEqt3C81fMIOK6DzzwwP8Fr9Gll14a/vCHP2SBcaEePXpkY61Wp7H3oSk+Z6onfG0ke265Q+jVdc7/9NlTHW++HqbPqPtA0bMVVo5GMRCtLjysj1jluXqPVYp++aZ9Oj3cct9dYdT48jcH733ioTBxysd5q1K7ZdpkVa6llmq5ZFh80TkXbbFaasr08uM01les1F14wTlVCF/P+iZMmDwpbzVcrAQu7G74m4oT6qCXBocX3yg/7mI8TjGU/XLmzHxOzYE00HCx0vO++x/IW5XWWnON0LdiihWws02cOCk8WVAJ+32KVazPPvtc3qp07tlnhjXXWD1vFWvZskU45qhfF52Xx0+YEIYNn/tzfkMceMB+WfBan0pm+LGLIWHbDsvlrUoTxo0OTz7wr7xVvdiV7VrrbVRUaTlp/NgwrgHXfUst0za70TRbdh02ed4bE7suNt5217BCwbVmvK5+d+jLYcZn9b+urq9R778b/nL+KeGV558sCmDjebr7KmtkFbkAAADzk1jVH8PNQs8++2zWzWw5cX6sgCwU3x/DyXJiV7V9+/bNW5ViMBm7Eo5BYqk4L1ZwTp1a3NNn7Fp3u+22y1tzxLAxVkgX9dD51VfhhhtuCAMHDsznzBHDxVhJWtgzQNSlS5ew+eab561iMdSMlfOF4nZWN5br1VdfnQWmhd8bYzha3TFqin1o7M+ZmglfG8HqK68SNuvXvyjE+3DSR+GROna3W6rFEs3ynyrFQHB2RercWKvXqlWC3RjqPvvKi3mrqrc/GB6uvO2GcMH1V/1vuubOv4UJkyfmS8yxVKslwwILzvlf7LuK/8r1T94Q8ZgUPnUST2pfN6CquFSHNu3ynyrFLp5fe6/qPwiFXnrztTDlk+JQud2ybbL/D4B03n7n3fDSS0PyVuWN7/7rrxvatWsb+qzaO59bKY4LW/qk1vchjp1a2ONBrCLd8Gcb5K3yNujfP7zx6kthaMW5ePbU76dr5682jdgt8q03XR/OO/vM7MluoG5ihWafdfqHhQrGvI/Vma//95k6VXpusMX2oWVBl7hfzfwyDH7ioTDr2+IxcOpiiWbNi8Z8/e67byu2Ze6vlZpa7Cp4rfU3LjqmH08cn1WoNqW7b/5LGP3+u3mrUrMWLUOv1Zv2/AwAADA3YuhXWg0ZCx7uueeevFXegw8+mC1XKFZFlqu6jGFdrCIvFIPL6roQjmJXvm+//XbeqhR719twww3z1hwxbFxuueKHnmMoeeutt+atqgYPHpxNhWLPd/37989bxTbYYIOiHuBirvHwww9X24VwFLs4nzx5ct6qtNJKK5UNkBt7H5ric6ZmwtdGsPOmWxWFmrEq8t7HHw4zvvg8n1M/CxfcbIqmffpJ/tPcWbFj57DoInPWHbtFHvreO3mrei8MfaWoC9/qujaOXS8vWNDd3TffzEpSnRotUnFMCk8cX8z8MllVbaHY/WZhVWs5cWzXWHlbKI5F23bpOZV4wNx74slBRUFmx44dQrduK2Vd967b76f53Eovv/xKGDlyVN76fsQB94dUbEehGLwuu2xx1+alYlfzcZnC7oHjhVRTWaVnz/D0k4+GzQdsWnSeBWpXrur1ow/Hhmcf/U/eql6s7lyx+5weSWJ1Z+zu+JlH7sva9RXDysLf4Rj+fvpJ8VPE84MNNt++aIzWGEg/+8h/wpdfFH8ZbGzx+L06+Kns758tHt/OXbtnoTsAAMD8YLXVVstCzUKTJk0KL7zwQt4qL74elysU1xPXV6pbt25FPTHFwqlXXim+R1ZOXKawcjSuI66r1Morr5wNvVUohrs1BaPRyy+/HL74ovjB6HLrj6FladXr9OnTaz1GcYzswu6IoziGas8yPco19j40xedMzYSvie24yZZZxWPhjbM4dmkcP7Uh4rqalfwSxqBztR69wqmHHRPuvOSa8ODVt4aHr7kt3PenG8Mt514efrPfIVUqWsvp2LZd0U25GZ9/HoaPGZn9HNd/8qFHhdvOvzLce/n12fSvS68Nfzr57LDrgG2yZWqzdKvWRSfZGJB+8tmnYY8ttwvXnn5Btr1xu+P2/+vSv4ZLTzg9bNav5oqw2douUxxexErgjz6eFA7ZZe9w8zmXhf/8+aZs3QOvviXccfFfwrnH/D70XaVPvnRaMWReoOA4RrFL5Ng1MpDG9OmfhseeGJS3Kq2+Wp+wbH4uWGftvkXnmzgu7COPPZ63vh/TPvkkDC/pLnj99Sq7p8y6zHxvWDj51NPDehtsHNbou2427bL73uGuu+/9Xqt2l1uuY+jQvn3eAupqbqpe23bsFNb52WZh4YKH4qZOnhiefvDevFV/rZdtk/9UKW7D1EkTwzZ7HBBOvOjacO51d4ULb/p3OP/6u8PpV94aDjn+jNBj1TXzpecN/Qdsl1W+Fl5Xx/FXGxpIz6333ng1TJ9WHGA3a9EqdO25at4CAACYt8UgsPQh/xEjRoQXX6y+N8wovh6XKxTXUy5YXHHFFfOfKsUChRga1iYuE5ctVLquKIaNpd31lo4ZW04Md0vHZY1jQscq10Jx/aXj1U6cODGrCq1N6XbEsbS7du2at+Zo7H1ois+ZmglfE1q+fcewzc82CYstumg+pzIo/ddjVfvorqv4C7hAQfVovOkUx1g989e/DRusuU5oGbuUy39JF114kdB26WXCVv03Dn8+5Zywy4Cts/nVWbJlq/ynSrEyd/T4cVl4e/ZRJ4QN+/bLQtwYLsap+RLNQrflVwyH7Lp3uPaMC2sNMxcs6HJ4toN33jMctNOeYfkOy2XbG8Xtb77EEtkYuccdcGg47zcnZceyJoXHJIpdEJ9z9O/DbltsWzke7EKVXQIsuMCCoVXzFmGtXn3C6b86Lvz+4F9n+1KdGZ8XV1G0bNYirLziSnmrvHX7rBValxzLuD2tWxTPAxru7XfeCa+/XnwBEqtIZweuPXp0D71X6ZX9PNt/Bj6Uhbbfl0mTJmcB7GzxYqtDh/ZhasUF0iGH/TpssNFm4drrbgjD3/8gjPvww2x6+plnw+G/Piqs3nfdMOipp7NzPjB/2GjrnUO7jp3zVqW6Vr1ust1uYek2cx56iKHtkGcfz8Ybbaiq10oLhV8cf3q2nUstG8eDrbxWil0Tx+5zu/deIxxw9Elhr8OOnScqOWMg3W/jLcIii865bvtk6sfh6Yf/nbea3qQJ48InU4q7kFqk4rq/td5OAACA+UQM6gq7041isFgXpcvF9cT1FYpVo7Has1AMVEurKcuJy5SGr3FdcZ2FlikpzIrDEU6YMCFvVW/UqFFVutSNw221a1c8FGHsDjiO11poypQp2birtYndDhcOvRgfJi5df9TY+9DYnzO1q5qO0WC7b7l96NRuTjl6/CV77IVnssrXhlqq5ZJh8YKbTvGXddVuK9cYIEZLtmgZDthx93DADrvlc4qVq6j99rvvwoE77hG2WG/DovFqS8VtiOHocfv/Mmzar3yf6FFp9W0cA7bLcp2Lqm1LxbB0jYptO/GQI2oMYEuD4w7Ltg0dS8ZrLRX3aeN11gunHXZMtcdvzIQPi8KO+J7+a65d7fJx/pb9N8qC6UJxHwufXIEfi9jtxYAttw1tOixfp+mhRx7N31mzxx5/sujCJXbLEStfZ1uyVavQd63iiq03hr4R3hs2LG/Vz/+dfV7Z7S03HXH0sfm7ik346KOibkDieeGzzz4Lvzj0V+Hf99UcxsQLuj323i/845931iuA/ecdd5XdxnLTjrvsUeViDWiYZdt1DKus1S8sWFCBX9eq13U32Sr0XK14HJaRw94JgwbWPA5LbZpXXEMWWrriOmmZtsXdJpWKVbtr9Nsw7Hfk7+sVwMagNFbR1mU65dIbsmrW2my8zS5h2fZzunCeVfFvwMvPPZlVvn6fPp5Y/GU4htqlxxp+TOLNsfHjx9dpqk/PHvGaqdw6SqePKq634o2qumqM9cZrtXiTrdx6SqePP/64ztd28do33vgqt57SqbT6oSaNtV74sXDec96D+V0sDii9bx3PFXVRulxcT1xfoRiWloZ+8fxSl3tQcZnSc1FcV2mYW/p3xq6KPykogKhO7NI3VpgWiusvXV/z5s2z4qpCpV39Vif+O1HYdXJUbjixxt6H2G7Mz5naSYcS2WL9jcK6q61Z9D/0G8PfDX8f2PDu4qIYWC5QpoI0Xrh8/uUXYdT4cdkUfy69mImVpdttNCBstHZlN5e1Wbb1Ulm16+x9mPnVzGw80zgVjrM429JLtg57brl9tSFpi5JAcrZZ387KKoI/GDs6+zO2C8Wbj3E82oN33iufU6zHCl3DYiVPnsz29Tdfh/GTJmbrnjr9kyonurjuNVbuHQ7eac98TrFX3n6zyti83TqvGP5w+LFVwuTYPuXQo0Kf7kruoTHFIHLggw/lrUo9e64cVlxhhbxVabNNN85+x2eL562HH3ksb33/4sXjiSefllW3RvFcu+Yaq4d9f75XUZA8Wzx/nXDSqeGVV17N5wDzqjXX2yi0aVd8PfRRHapeY2jbb+Mtw+IF10zTp00JgwbeXWtoW5NOK3bLKjLL+abiWunjSRPC+DEjw6efTCt7rbRSr9XC1rvtl89pemv/bLPQa/V1iq6rR7z3Vnj8vjvyFjCvuPPOO7PxsOoyPfLII/m7anfWWWeVXUfp1KVLl/D663V/KKMx1htvxG255ZZl11M67bLLLnV++O3DDz8Mq6++etn1lE5HH310/q7aNdZ64cfCec95D35o4nfCuj4sMmvWrDo/UFEo3hOrS9VoXK6h66/PPjREXc9l8YGPeXEfmuJzppjwNYFY/bjdRpsVVT9O+3R6uPeJh7OxSOfGF19+ESZMmpiFq7NvjsVw8cq/3xh2POrgcMgfjs+m+PNN/76zSnDYolnzsNUGG+etmi2x2OJZpefMr78K/67Y9t1/e3g46NTjsumAU34Tnnzx+ezkUahz+45hh022yFvFPvp4chaAxvVF8b2DXhocDjvj92HvE44Ih51Z+eexF5yRBdWFv9Dxxl/vbiuHrTfYJJ9TLB6DOH5sDFujeJzjNu9/8m8qpmOyde9Rsf2nXHFBVs1aKN7IW2+Nvln1b6nH//tsGPLW0CrbsmbP3tk4tRced0r43UGHZ3/G9tq9V8/WF7fDCQkaxxtvvhXeGzY8b1XadOMNQ8uWxU+9rdq7d1ipa5e8VSmGtjG8nRfEc+Ds/dh9t13CsLeHhgf/c2/444XnhYcH3hdeHTI4bLn5gOz12eKX2vMvuqReT0wDTWtuql77D9g2tFtu+bxV+QXn1cFPhXdeH5LPabhYoTmj4no0hq1R3JbnHv1POO/4X4bzfntouPiUo8KZR+0Xrr/4zDBx/NhsmdnitU3cp7pUqKYWK27X22TrsHjFNexsn1VcT8Yge24C6cZU+OAPAADA/CTer6pr1XcMUBsS/MX7Wu+8807eql6swm/IPbCZM2fWax8aYurUqflPNYv3IUszlLpo7H1ois+ZYsLXBPbbbtfQpeDGWQxJn3ppcHj2lZoHL66L+wY9Gg45/XdZuLrlYfuEky+/IJx25YXhvierPj1323/uDjfde2f4suIXtVCsIu23WnF3nNWJlWL/emRgFu4WBsexQvWca68IT7z4fFGFRLzZtHqPVcJybeeMUzbbGVddkgWg2/36gCwg/sOfLw5nX3N5Vqlb6O0Phlfs1/nhrfeLuweN48DGLohLvTvy/fC7i88Oux37y7DNr/YPR55zasW6/5htc9zOQi+9+Xo4s2I7xpV0ERfHaF1n1dXzVrFb77srjBg3Jm/N0WzxJcJqPXqFzfptkP0Z29Fnn3+ehcqFJ6QYxBYeJ6Bh4u/SAw8+VPRwQ9aF+EYb5q05ll12mWwc2EIx7Hz1te+3i8pSsdL1kosuCC1azAkWog7t24crL78kbNB//XxOpWeffS4LoIF5U0OrXnuvtW7os07/ourO8aNHhIfv/nveargxI4aFv5x/Sjj9iH3CiQfvEi4//bhw42Vnh7tv+UuVMUvfHfpyuPmKc8Pkj4ofVmvRcsmwcp++eavpbL7TXqF95xXzVuV1dQyy3xjyfD5n3uMBPAAAYH4VxzYtNyZpOUsuuWRYqODB47oqN25rOXGs1TjUWH3FboLrsw8NEbetLsqNtVoXjb0PTfE5U0z4Opdi5WPs1nehgj7AR344JtzzeHEXmam8+MarVcLLQvc8/mAYPnpE3qoUx3ZdqVNx95zVGTZqRLj9weq7Sv77A/eEDyd+lLcqtW7VKnRfvrjarFTc5rjt1YlBb6w6/WJm8ZMtnTvUflKLYWxN4+rGv/uZl18M3xSEo3Fs2RU7dspbxeLyl9361/DOiOG13kz77PMZ4faB94aJUz7O51SKQezUT2vvox1+aOIF0iMP3h8mfjiqTtMWAzbL31ne5Mkfh6efruymd7beq/YO3bt1y1vFttxiQFEFUvwdfvjRx+p9Y/zUk39fdnvLTVdednH+rtq1bdsmHPHrwyouwspfwMRq3hNP+G3RuNvxoZgXX6pbFVysqC23jeWme+76R9kxJ4C6K1f1+vVXX4XXaql6jdWd62+2TWheMIb9FzM+C889/kCjVHfGMLamsVI/GjcmDH3p+aIHyRaouLZt32nOw4U1ie8/fv/t6zSddcyB1W7Lyn3WCqv3+1nR2DoTxo4Kzzxyf976/i259DL5T5ViODxz5rxZkQtNId5Y6tSpU52m+txIi9co5dZROnXt2jW7kVRXjbXeZZddtux6Sqd4w6s+1fLt27cvu57Saemll87fUTeNtV74MXDeq+S8B/Ov+L0v1QOkcT2lFZIN7Tq4OnFdcZ2FSv/OuRG/05WuL1aJptyHctvb2PsQ2435OVM74etciN0N7zJg62xc1tlit7//GfRYNk7q9+X1Ye8UlbYvvNDCoc1SxTeKYthZ5Rfy21nh7RHDiipeS8X9en/MyLxVKY4t26l9h7zVcI8OfrpK5WqLiovEct0D19cr77wRpn9WXI6/TOvqL6hiNe5R554Wrr/79vDRx5OqVLHGkPi/Q1/NKnb/+dB9YamWxU+DfD3rmzBh8qS8BTTUkFdeCcOGv5+3Kr388ithpZV7hzYdlq8y7brHz6tcWMRxXyd8VPzQSFOI/0aUfslcu+9aoVMtT8qttFLX0KtX8VjSb771dv4TMC8pW/U6bnTWvW9NNt5217BCt5XzVuUXmbdffym8+NSj+ZymN/yt17Juigu1al18/diYYiD9sy13DC1atc7nhPBlxXX14CceDJMmVP/gYVOK29iq5Prx669nhimTmv7fGJhX7LXXXmH06NF1mjbbrOaH7gqdeuqpZddROsXxCVddddX8XbVrjPUuscQSYeDAgWXXUzrdfvvtdX74rXPnzmHIkCFl11M6XXxx3R8GbKz1wo+F857zHszvYte+pWHmCivUrXCrdLm4nri+Qk8//XSYPr34u2XLli1Dx47F353LicvEZQvFdcV1Fpo4cWL+U6VFF100dKumUKPQJptsElq1mvMQdPTZZ5+FCROKe80cMWJE+OqryqEUZ4sPcdRFHD+69GGWMWOq9rLZ2PvQ2J8ztRO+zoVtNtg0rNK1W9HN9Vnffhu22XCzcPVp51WZfr3n/tkYrIW6dOz8v9fP+81JoccKXfNXGq4uTzTEatHPS0LW7779LswsOamU80VJt8apxND320RPY5SK4em339W/G+B/PHhf2PfEo7Mun0+94sJw3l//lHWhvMORB2XjycaQNupcEj7HED6GtkDDxXPZAwPnvheBsWPHhcEv/DdvNZ34xGyzZpXdk88Wv6TW1m3HwhWvx+WAeVt1Va+vv/RcjdWrnVbsFlb/6QZhoYXnfBmb9c3XoWPnruHYsy4vO3Uo6cFkiWYtwo77HJq9dvQZF4d1N9kqf6Xh4rXSdw24Vkql38ZbZIF04XX1t7NmZftWejziFPc/HodC8TjNfv3Q3/1fdqxT6rXGOqHlkkvlrUqfV3zJHT+6+MFEAACAedWwYcOy8UULxdAzdg1ck/h6aYAa1xPXV2r8+OLCtBgs9ujRI29VLy4Tly1Uuq5o5Mji72Ax7IwPWtQmhoqlweUnn3wSHn/88bxVady4cVUC5NatW4cBAwbkrep16VLcQ2gMcT/8sHiYn6ix96EpPmdqJnydC82WWCLrvrZQy2bNQ5flOpedlu+wXFYlWqhVi5b/ez0GeLFSqqlMmFz8dEVUl65AFlyw+H+b7yr++zGUnb8w9JWsa+TSbp9jZW6bki7opk3/pMaukIHajRkzNgwaVPxkW0M9+OAjDRrsfm60b9c2dOxQ/GDGrDp0WxJfLj2nxkAWmLc0tOp10cUXDwuVjP8Sg9i2HTuF9p1WKDs1a1H8xWrhii9lbTt2rnx9uRWqBILzo8UWbxYWKLmuXqJ5iyrHYvYU9z8eh0LxOM1+vU287q5HV391EUPzxZYortz46MMx80xlLgAAQG3eeeed8PHHxUPotW3bNmy33XZ5q7z4elyuUFxPXF+pOK+wJ8kYLK6++up5q3pxmcKq0biOcut/7733whdfFD/03KdPn1qDxTjubGnBw/DhlcVVhWKQWVrpGcPXvn375q3y+vXrVyV8jVWpQ4cOzVtzNPY+NMXnTM2Er/O4a8+4MDx8zW3/m26/8M9hzV41dwOyXJt2RZVVMXCYMn1a3prjg7Gji8KI+J6utYztFcPhFTsWP4ERxyMsHQd2/x12Cw/8+eaibT/+wMPyV8vrt9qaoVXz4pNLrIaNVbqFjt3v0KL1xr/ngB13z18tb/n2HUPzxYtvlsWAtNTJhxxZtO6BV98SDt3t5/mr5fVfY+2s2+HZYrDy1vueBIG5FbscHl/SZcZqfVYN+/58rxqnPffYLSy1VHEQ8ezzz4dx46o+ZdaY4kXZGmsUX1i+PvSNbBzbmowdO7bigubdvFWpe/e01VvA3IlVr6ut07/eVa9NZbeDjgwX3vTv/03nXfevsOUu++Svlte2Q6eweEmw+FmZ68cfqy133Td077160YOKMyuuU98b+nLeAgAAmPe9+OKL4f33i++3L7nkkmHbbbfNW+XF1+NyheJ64vpKvfTSS1noWCgGl1ttVX2vTfG10nAzriOuq1ScN2VK8fCFscvefffdN29V1b1797DxxhuHBRaYE4nFqtTXXnstbxV79dVXiwooFltssRq3P9pxxx2zbocLxcrdBx98MG/N0dj70BSfMzUTvs7jJk8tvknfsnmLsPYqq+WtqtbuvXroXTCGWBTHJ/1gzKi8Ncd/h74SPv6k+KbaKl17hG03rH5Mij233CF0bl9c5TH1k0/Ce6M+yFuVxoz/MMz8urgL415du2chaHU26rtulfA1jjFbOgbtxCmTw9ffzOmvPIbGq3XvVW3VcJy//hprh8UKuiyIJ85RH47NW3OMnTihKJCOlc3xeFe33fF4x3UXnvCmfTo9vDD01bwFNET8PYzVqoXi7/pZZ/4h/PHC82qcLr/korDfPnvn76o0ceKk8ORTaapo6yreoN9x+22LbtTH8Wv/cced1Va/fv31N+Ha624InxR0bbLIwgtnY8UC8461f7ZZWKpNu7xVqS5Vr01l2pRJFefROddKMSTu2nPVbMzScuL83mutGxZZdM61VDxPxX0iZMF1/wHbFnUVHY3+4N3w3GMP5C0AAID5w2OPPRa+LLjnHu9dbbrppmGnnXbK5xSL8+Prhfe44vvjesq56667qgR/bdq0CQcccEDeqiq+FpcpFNcR11UqVqbGcLRQ8+bNw957711t5egvf/nLKlWpMRh94IHy3+nivk2bVpydrLnmmuGoo47KW8V69eoVdt5557BwQU9XsXI3jlf76aef5nPmaKp9aMzPmZoJX+fCk/99Llx041/CBddfVafpz7ffXKUC9c3h7/3v9asqXi+t8hw+elT4pqD7yYUWXDBs2X+jsPsWVcvD+67SJxy2+z5h6SVb53MqDR8zMjw15IW8NUccr/T1994qCgGaL7FE+Pk2O2V/R6m9K+Zvv/GALAiYLb731XffzELSQjGMjaFsoQ7Ltg1H73NwlSAzhqNH/vyg0H/NdYp+sT/7/PPwwuuv5K053h35QfZaoZ5dVgq/PeCwKgHsMq2XCr878PDQp3vPfE6ljz+ZGp55perTGjGQnjxtat6qFMPmo/f9RfZ3FIrH6Nj9Dik63vF4vP7e2+HFN4SvMDdilWqsVi3Ue5VeoUeP7nmrZpsP2LToXBXF8WMLLziawk/XWTus2++neavSWeecH267/Z9VuhaO23bJZZeHW/7293xOpfXXXy/bd2DeEKtee6/ZLyxYcU02W32qXsd8MCzce+u14fZrLqnzNHLY2/m7K31acR0zex3/+Otl4dUXnspfqRT/ji9mzMhblTp37RH2OOToKgFsq6WWCXseekzosnLvfE6l6dOmhKFDis/DjSnuQ9yX0n2vbor7H49DoXicCl+Px6Gheq7WN+y8/+HhpD/+NWyy3W5VjtsnUyaHpwbek7cAAADmHzHQLB3DMwafF1xwQdhhhx3yOZViO84vDUbj+8sFo1EMG++///6sKnO2eN8/VoZed911ReFi/DnOi68VZgPxvXEd5YLL6N57760SjsZuf//xj3+E5ZZbLp9T6ayzzgqHHHJIlWD0ySefDIMHD87nFLvtttvCyy8X93TUrFmzcPLJJ4fDDz88n1Mp/r033nhjWGml4vwgBqN33HFH3qqqsfehsT9navaTAYfsVfPgcyQTxwb93UGHh2UKxuV65Z03wgkXn5O3qlqubftwyi+PCl2WK+4OOIZ84ydPDCPGjs4qTDu17ZCNKVsaNnw647NwxW03hCdfLH/zLAaKJ/7iyNBumWXzOZVmfTsrjPtoQrb+WG224nKdQ/tl2hSdAKNxEyeE0//0xyrjoEb7brdL2GPL7atsU6xkHTFudPhw0kehxRLNQ7flVwytW7YqWnfcvxi8nvani/I5xY7b/9AwYN2fFVWcRnF/h40eGaZ8MjUs1ap16NZ5hdCiWfP81UrxpHT/oEfDlX+/MZ9T7Je77RN22GSLLOguFI/JxI8/DjO/mpkFrs2XaFbleEyYPCmc+9crsmCbptFzhS7hlAMPzVs0tYceeTTsu//BeavS0ksvXVRpXpvLLrkw/GyD/nmr0k23/C0cf8JJeavSMUcdEU76/fF5q2bTp38adt9734qLpDkPcLRq2TLcd8+dYeWViwf4/+ijiWGrbXcIYwu6JY5jJ7Qu6WKjJtttu3U48/RT81axQU89HfbYe7/s3FMoBsl77LZLWL5z5zD0jTfDnXf9q2gbonj+vPOft4V+P10nnzPHjBkzws/3Oyg89/ycC6yFF14otFm2+CKpJrGi9tKLL6gyVkQ5r70+NGy/025F41HcctN1YYsB1feWQOMZ/f6wcPu1l+UtmtLWu+8ffrbljkXh69gRw8PV553caF0OH3rC/4Vuveb0fPLJ1I+zgHH4W6/nc6ra/eCjwlr9N6lyrfT5jE/DuJEfZOFqHCu2Y8W/o0s0K36qNp6vBj8+MNx9y1/yOXOs1KtP2PPQ34RWrZfO51QsP2tW+Lqkx5OaTJ86Jdxxw5VhxLsNHx+/3HYMe+u1cM355c/FUbn3NMQXn88IA++4OTxfcYxoOl1XXjUcduLZeYvvQ+z2LXZDNmjQoHxOCPvtt1+46aab8lbDxJtS8SbT6NFzqu3PO++8cMIJJ+Sthmms9d53331h++23z1uV141PPfVUWGuttfI5DXP++eeH3//+93krhM4V14jxRlr79u3zOQ3TWOuFHwPnvUrOezSlGCTFblVpfDFAPPfcc0OrVq3yOZVib3TxPBLPgbESM/4OFQ5xGMV7UieddFK4/PLL8zlVxVD1nnvuCZtsskk+p1K87x8Dx3HjKvOEjh07Zt3clt5nf/bZZ7NufqsLX6Nbb7017LXXXlW+98Ztj/sQ96Vdu3Zh2WWXrbL+GCrGwPett97K51QV//6//vWvVboSjgUV8Zwbuw2O3RHHYxT/LPT111+HK664Ihx33HH5nPIaex8a+3Omeipf53GxovS6f/0jTJ5a3P93/EWLlaSxy9tN1lk/CzBLQ844Fuv9gx6rNniNYkj4z4fuy0LLQrG73VjxueHa62Z/R/y7Sn+543vueuSBssFrdMt9d4VBLw2uEjjE6tTYBfFm/TYIP+2zRliqVdWT64hxYyr2u7j6q9Cf/3FzePXd4qrdKAata/bsna07/lkavMbl4/uuu/v2fE5VN993Z1a9WrrueEzaL9smrNCxU7becscjHkvBKz92cRD2cR9+WOeptGvxmTNnhocertrl8KabVK3Ir07Lli3CphtvmLcqxa58H3ns8bxVs88//7zstlY3TZlaXH1VKAbLp51SHCRH7777XjjzrHPDwYceHi69/MoqwWt00oknZNWzdRW7LS63fdVNEydNqnKuA6o3t1WvTenev10b3n97aJXf8Ri0dltltbDW+htnf5YGr3H5+L4H7rg5n1O7BSqOR6wMreu0SMW1YOExnJ/EalvBKwAAML+76qqrsqrMwurUKN6Di13b9unTJ/uzNJCLod2dd95ZayAXQ9OLLrqoSuVlvKfeunXr0Lt372yKP5feZx81alQ4++yzawxeo3POOScbO7X0e28ME2M3wHEfYiVn6fpjaHrxxRfXGFpGAwcODNdcc02V7YjfZ2Nlalx/HIe1NHiN2/PEE0+E008/PZ9Tvcbeh8b+nKme8HU+ELuwvfLvN2RVpqW/hNX57PMZ4eZ/3xluuOcf+ZzqxSrQGGaWBrw1GT9pYvae+N6axO1+6LlBWRBcF3H/YvB57rVXVBvqRjGsuejGq8NLb76WVaTWRVzu6Zf/G8646uIqYU+h+Fpc5r9DX63zuuOxq8vxAGo3YsTI8OKLQ/JWpfp0OTzbxhttWOWhlP8MfCirim1K8eLo8F/+Ilx52cVZZWpdLL744uEvV12Rva/04gr4/qw9j4/1WiiGwbEb33eHvpxVptZFXG7oi8+Fmy4/Z54Lk79v33z9VXjntZfCTZedI3gFAAB+EGI3tn/5y1+KejmrSVwuhnk1jd1aKIaXhx56aHjzzTfrlGvEZeKycf3xvbWJweOBBx6YVePXNTcZO3ZsOProo8PVV1+dz6nZGWeckXX5O7WGwotCs0PLXXfdtdbwOGqKfWjsz5nyhK/ziedeHRJ+ddZJ4e7HBmbjxlb3izjji8+z8V1Pvvz8rAqzrh4b/Ew46rzTwsBnnqh2/XHetE+nh3sefygcd9GZ2XtqE4PMS26+Npz+5z9mFaHVhbCxOjaGrdfeeVv47UX/V2PwOlsMPE++/IJw2a3XZZWy1QWl8YQXx9L9443XhLP+clmNwetscZlTr7wwW/fIinWXVu/OFo/37GNXl+MB1O7Z5wdnVaqFNtrwZ2HJku4xatNz5R6hb9/ibpDeGPpGeK/kibumEAPU3XfbJbz83+fD4b88JOsCuZz4pNwRvzosvPrS82GnHbYXvMI8pG3HTmHVvuvOF1Wvs8VxSa/74xnhrpv+HMaPHVVtCDur4lppzIhh4Z/XXR5u+dP5gtcK8Vh9MeOzMHbk8PDE/XeGS//wm3DdxWeGUe+/my8BAAAw/zvqqKPCTjvtlHXP/WU1983j/Ph6XC4uXx+xK+l11103XHrppWHChPLFZXFefC0uE5eN76mrGF5utNFG4cQTTwwjR47MugQuFdcfw9PYxW9cf/yzPuJYqFtvvXV44IEHsm56y4kZxNChQ8Nhhx0Wdt999zoFr7M1xT409udMVcZ8nU/1WKFr1v1t9+VXDIsusmj4YOzoimlUePWdho+dVSiuP3Zl3H35Lln7vVEfhGGjRmQh5tyIXQ737dUndGzbPnRu3yF8OmNGePuDYeGN4e/Wq/K2nGVaLxV6r9QjrNixc1h2qaXCpClTwvDRI8JLb71ep8C1Jsu37xh6rNg1Oy5xH0aP/zC8M2J4suNNwxnzlflR9jDLtGlhxMhRYdy4D0PHjh3CiissX3aMCyjHmK80RKullgkrdu8Z2i23Qliy4udpUyaHcRXXdu+98YrAlXmeMV8BAH74jPn6/YrjtG6++eZhzTXXDJ06dQpjxowJL7/8cnj44YfrFSbWZO21187GjO7bt2/Wjl3uDhkyJLz44otZe27FrnrXWWed7O+JY1S//vrr4bXXXguPP163ocjqYptttsm66+3Zs2fW/W8MLJ955pmsIjWFxt6HpvicEb4C8znhK/BjJHwFfmyErwAAP3zCV+CHQrfDAAAAAAAAAAkIXwEAAAAAAAASEL4CAAAAAAAAJCB8BQAAAAAAAEhA+AoAAAAAAACQgPAVAAAAAAAAIAHhKwAAAAAAAEACwlcAAAAAAACABISvAAAAAAAAAAkIXwEAAAAAAAASEL4CAAAAAAAAJCB8BQAAAAAAAEhA+AoAAAAAAACQgPAVAAAAAAAAIAHhKwAAAAAAAEACwlcAAAAAAACABISvAAAAAAAAAAkIXwEAAAAAAAASEL4CAAAAAAAAJCB8BQAAAAAAAJhrIfw/z/QZsxAnhs0AAAAASUVORK5CYII=;" vertex="1" parent="1">
          <mxGeometry x="380" y="250" width="1887" height="465" as="geometry" />
        </mxCell>
        <mxCell id="Bnx4yGOkbPhiIPonUfCJ-2" value="" style="endArrow=none;html=1;rounded=0;entryX=0;entryY=0;entryDx=0;entryDy=0;exitX=1;exitY=0;exitDx=0;exitDy=0;" edge="1" parent="1" source="Bnx4yGOkbPhiIPonUfCJ-1" target="Bnx4yGOkbPhiIPonUfCJ-1">
          <mxGeometry width="50" height="50" relative="1" as="geometry">
            <mxPoint x="1350" y="580" as="sourcePoint" />
            <mxPoint x="1400" y="530" as="targetPoint" />
          </mxGeometry>
        </mxCell>
        <mxCell id="Bnx4yGOkbPhiIPonUfCJ-3" value="" style="endArrow=none;html=1;rounded=0;exitX=0;exitY=1;exitDx=0;exitDy=0;entryX=1;entryY=1;entryDx=0;entryDy=0;" edge="1" parent="1" source="Bnx4yGOkbPhiIPonUfCJ-1" target="Bnx4yGOkbPhiIPonUfCJ-1">
          <mxGeometry width="50" height="50" relative="1" as="geometry">
            <mxPoint x="1350" y="580" as="sourcePoint" />
            <mxPoint x="1400" y="530" as="targetPoint" />
          </mxGeometry>
        </mxCell>
        <mxCell id="Bnx4yGOkbPhiIPonUfCJ-4" value="" style="endArrow=none;html=1;rounded=0;entryX=0;entryY=0;entryDx=0;entryDy=0;exitX=0;exitY=1;exitDx=0;exitDy=0;" edge="1" parent="1" source="Bnx4yGOkbPhiIPonUfCJ-5" target="Bnx4yGOkbPhiIPonUfCJ-1">
          <mxGeometry width="50" height="50" relative="1" as="geometry">
            <mxPoint x="310" y="800" as="sourcePoint" />
            <mxPoint x="1400" y="530" as="targetPoint" />
          </mxGeometry>
        </mxCell>
        <mxCell id="Bnx4yGOkbPhiIPonUfCJ-5" value="" style="shape=image;verticalLabelPosition=bottom;labelBackgroundColor=default;verticalAlign=top;aspect=fixed;imageAspect=0;image=data:image/png,iVBORw0KGgoAAAANSUhEUgAAB14AAAHUCAIAAAAV1x2wAAAgAElEQVR4Ae3dT4yU553o++zu8u48bK50dTZzdyCZxdW1ZCnXkke9OrEsEW98PAojEzuJJ7IwPkqCb44gE4lkNDYLT5CGUaxBss3CBEUG2U6wE4FtBYSMsBzUshjSUmMjQAc1C5p7ZqbOKaC73+ett/501xP8/Or5ICtpqquf+j3fqqbhw8PbX9v86MP+U0CBogr8X//P1gc2bfKfAgqEK/Cf/s//Y+6hzf5TQIFYBf7f/3vzFj8UUCBagb/5m7/p+aFAZQX+o/Hj31d+/NvKj/+R/vj//VBAgRktkH6u/4+VXwP+beVXhX9v/FLxH5P8Mvm1okTMMAoosPnRh9FwOBA0sAJ3C6DhWCBoWgXuFkDD0UjQvAr0C6DhSf607z6zV6ApPqsM9O///u+rNvRv//ZvLTbyUwUUmMkCzc/65q8GzV8lJvw1EA07NK1AcQXQMGdUIGgBNIwaFYhYAA2DRgUiFkDDE/6B391mr0DTfZoe1ALiJhvx4pmUQZuqp0Dr07n509YvAs1fHyb/1Q8NF8eCjs0qgIaDsqCxFUDDEVnQzAqg4YgsaGYF0PDkf+Z3z9kr0NSf//iP/2jZ0N2fNvHI2wooMEsFOj/lW78srOvXPTSMhhUorgAaJowKBC2AhiGjAhELoGHIqEDEAmh4XX/sd+fZK9BioLs/7QQjNyqgwAwX6PylYL2/4qHh4ljQmVkF0HBQFjS2Amg4IguaWQE0HJEFzawAGl7vn/zdfyYLdKrQ6o0zzGG2pkC1BVY/wTvf2NgvdGgYDStQXAE0TBgVCFoADUNGBSIWQMOQUYGIBdDwxv7876NmskCnELlRAQWqKjDNL25ouDgWdGZWATQclAWNrQAajsiCZlYADUdkQTMrgIanUQAfO8MFqrIwm1Wg8gK5filDw2hYgeIKoGHCqEDQAmgYMioQsQAahowKRCyAhnOJgHUUUEABBSovgIaLY0FnZhVAw0FZ0NgKoOGILGhmBdBwRBY0swJouHLIsH0FFFBAgVwF0DAaVqC4AmiYMCoQtAAahowKRCyAhiGjAhELoOFcImAdBRRQQIHKC6Dh4ljQmVkF0HBQFjS2Amg4IguaWQE0HJEFzawAGq4cMmxfAQUUUCBXATSMhhUorgAaJowKBC2AhiGjAhELoGHIqEDEAmg4lwhYRwEFFFCg8gJouDgWdGZWATQclAWNrQAajsiCZlYADUdkQTMrgIYrhwzbV0ABBRTIVQANo2EFiiuAhgmjAkELoGHIqEDEAmgYMioQsQAaziUC1lFAAQUUqLwAGi6OBZ2ZVQANB2VBYyuAhiOyoJkVQMMRWdDMCqDhyiHD9hVQQAEFchVAw2hYgeIKoGHCqEDQAmgYMioQsQAahowKRCyAhnOJgHUUUEABBSovgIaLY0FnZhVAw0FZ0NgKoOGILGhmBdBwRBY0swJouHLIsH0FFFBAgVwF0DAaVqC4AmiYMCoQtAAahowKRCyAhiGjAhELoOFcImAdBRRQQIHKC6Dh4ljQmVkF0HBQFjS2Amg4IguaWQE0HJEFzawAGq4cMmxfAQUUUCBXATSMhhUorgAaJowKBC2AhiGjAhELoGHIqEDEAmg4lwhYRwEFFFCg8gJouDgWdGZWATQclAWNrQAajsiCZlYADUdkQTMrgIYrhwzbV0ABBRTIVQANo2EFiiuAhgmjAkELoGHIqEDEAmgYMioQsQAaziUC1lFAAQUUqLwAGi6OBZ2ZVQANB2VBYyuAhiOyoJkVQMMRWdDMCqDhyiHD9hVQQAEFchVAw2hYgeIKoGHCqEDQAmgYMioQsQAahowKRCyAhnOJgHUUUEABBSovgIaLY0FnZhVAw0FZ0NgKoOGILGhmBdBwRBY0swJouHLIsH0FFFBAgVwF0DAaVqC4AmiYMCoQtAAahowKRCyAhiGjAhELoOFcImAdBRRQQIHKC6Dh4ljQmVkF0HBQFjS2Amg4IguaWQE0HJEFzawAGq4cMmxfAQUUUCBXATSMhhUorgAaJowKBC2AhiGjAhELoGHIqEDEAmg4lwhYRwEFFFCg8gJouDgWdGZWATQclAWNrQAajsiCZlYADUdkQTMrgIYrhwzbV0ABBRTIVQANo2EFiiuAhgmjAkELoGHIqEDEAmgYMioQsQAaziUC1lFAAQUUqLwAGi6OBZ2ZVQANB2VBYyuAhiOyoJkVQMMRWdDMCqDhyiHD9hVQQAEFchVAw2hYgeIKoGHCqEDQAmgYMioQsQAahowKRCyAhnOJgHUUUEABBSovgIaLY0FnZhVAw0FZ0NgKoOGILGhmBdBwRBY0swJouHLIsH0FFFBAgVwF0DAaVqC4AmiYMCoQtAAahowKRCyAhiGjAhELoOFcImAdBRRQQIHKC6Dh4ljQmVkF0HBQFjS2Amg4IguaWQE0HJEFzawAGq4cMmxfAQUUUCBXATSMhhUorgAaJowKBC2AhiGjAhELoGHIqEDEAmg4lwhYRwEFFFCg8gJouDgWdGZWATQclAWNrQAajsiCZlYADUdkQTMrgIYrhwzbV0ABBRTIVQANo2EFiiuAhgmjAkELoGHIqEDEAmgYMioQsQAaziUC1lFAAQUUqLwAGi6OBZ2ZVQANB2VBYyuAhiOyoJkVQMMRWdDMCqDhyiHD9hVQQAEFchVAw2hYgeIKoGHCqEDQAmgYMioQsQAahowKRCyAhnOJgHUUUEABBSovgIaLY0FnZhVAw0FZ0NgKoOGILGhmBdBwRBY0swJouHLIsH0FFFBAgVwF0DAaVqC4AmiYMCoQtAAahowKRCyAhiGjAhELoOFcImAdBRRQQIHKC6Dh4ljQmVkF0HBQFjS2Amg4IguaWQE0HJEFzawAGq4cMmxfAQUUUCBXATSMhhUorgAaJowKBC2AhiGjAhELoGHIqEDEAmg4lwhYRwEFFFCg8gJouDgWdGZWATQclAWNrQAajsiCZlYADUdkQTMrgIYrhwzbV0ABBRTIVQANo2EFiiuAhgmjAkELoGHIqEDEAmgYMioQsQAaziUC1lFAAQUUqLwAGi6OBZ2ZVQANB2VBYyuAhiOyoJkVQMMRWdDMCqDhyiHD9hVQQAEFchVAw2hYgeIKoGHCqEDQAmgYMioQsQAahowKRCyAhnOJgHUUUEABBSovgIaLY0FnZhVAw0FZ0NgKoOGILGhmBdBwRBY0swJouHLIsH0FFFBAgVwF0DAaVqC4AmiYMCoQtAAahowKRCyAhiGjAhELoOFcImAdBRRQQIHKC6Dh4ljQmVkF0HBQFjS2Amg4IguaWQE0HJEFzawAGq4cMmxfAQUUUCBXATSMhhUorgAaJowKBC2AhiGjAhELoGHIqEDEAmg4lwhYRwEFFFCg8gJouDgWdGZWATQclAWNrQAajsiCZlYADUdkQTMrgIYrhwzbV0ABBRTIVQANo2EFiiuAhgmjAkELoGHIqEDEAmgYMioQsQAaziUC1lFAAQUUqLwAGi6OBZ2ZVQANB2VBYyuAhiOyoJkVQMMRWdDMCqDhyiHD9hVQQAEFchVAw2hYgeIKoGHCqEDQAmgYMioQsQAahowKRCyAhnOJgHUUUEABBSovgIaLY0FnZhVAw0FZ0NgKoOGILGhmBdBwRBY0swJouHLIsH0FFFBAgVwF0DAaVqC4AmiYMCoQtAAahowKRCyAhiGjAhELoOFcImAdBRRQQIHKC6Dh4ljQmVkF0HBQFjS2Amg4IguaWQE0HJEFzawAGq4cMmxfAQUUUCBXATSMhhUorgAaJowKBC2AhiGjAhELoGHIqEDEAmg4lwhYRwEFFFCg8gJouDgWdGZWATQclAWNrQAajsiCZlYADUdkQTMrgIYrhwzbV0ABBRTIVQANo2EFiiuAhgmjAkELoGHIqEDEAmgYMioQsQAaziUC1lFAAQUUqLwAGi6OBZ2ZVQANB2VBYyuAhiOyoJkVQMMRWdDMCqDhyiHD9hVQQAEFchVAw2hYgeIKoGHCqEDQAmgYMioQsQAahowKRCyAhnOJgHUUUEABBSovgIaLY0FnZhVAw0FZ0NgKoOGILGhmBdBwRBY0swJouHLIsH0FFFBAgVwF0DAaVqC4AmiYMCoQtAAahowKRCyAhiGjAhELoOFcImAdBRRQQIHKC6Dh4ljQmVkF0HBQFjS2Amg4IguaWQE0HJEFzawAGq4cMmxfAQUUUCBXATSMhhUorgAaJowKBC2AhiGjAhELoGHIqEDEAmg4lwhYRwEFFFCg8gJouDgWdGZWATQclAWNrQAajsiCZlYADUdkQTMrgIYrhwzbV0ABBRTIVQANo2EFiiuAhgmjAkELoGHIqEDEAmgYMioQsQAaziUC1lFAAQUUqLwAGi6OBZ2ZVQANB2VBYyuAhiOyoJkVQMMRWdDMCqDhyiHD9hVQQAEFchVAw2hYgeIKoGHCqEDQAmgYMioQsQAahowKRCyAhnOJgHUUUEABBSovgIaLY0FnZhVAw0FZ0NgKoOGILGhmBdBwRBY0swJouHLIsH0FFFBAgVwF0DAaVqC4AmiYMCoQtAAahowKRCyAhiGjAhELoOFcImAdBRRQQIHKC6Dh4ljQmVkF0HBQFjS2Amg4IguaWQE0HJEFzawAGq4cMmxfAQUUUCBXATSMhhUorgAaJowKBC2AhiGjAhELoGHIqEDEAmg4lwhYRwEFFFCg8gJouDgWdGZWATQclAWNrQAajsiCZlYADUdkQTMrgIYrhwzbV0ABBRTIVQANo2EFiiuAhgmjAkELoGHIqEDEAmgYMioQsQAaziUC1lFAAQUUqLwAGi6OBZ2ZVQANB2VBYyuAhiOyoJkVQMMRWdDMCqDhyiHD9hVQQAEFchVAw2hYgeIKoGHCqEDQAmgYMioQsQAahowKRCyAhnOJgHUUUEABBSovgIaLY0FnZhVAw0FZ0NgKoOGILGhmBdBwRBY0swJouHLIsH0FFFBAgVwF0DAaVqC4AmiYMCoQtAAahowKRCyAhiGjAhELoOFcImAdBRRQQIHKC6Dh4ljQmVkF0HBQFjS2Amg4IguaWQE0HJEFzawAGq4cMmxfAQUUUCBXATSMhhUorgAaJowKBC2AhiGjAhELoGHIqEDEAmg4lwhYRwEFFFCg8gJouDgWdGZWATQclAWNrQAajsiCZlYADUdkQTMrgIYrhwzbV0ABBRTIVQANo2EFiiuAhgmjAkELoGHIqEDEAmgYMioQsQAaziUC1lFAAQUUqLwAGi6OBZ2ZVQANB2VBYyuAhiOyoJkVQMMRWdDMCqDhyiHD9hVQQAEFchVAw2hYgeIKoGHCqEDQAmgYMioQsQAahowKRCyAhnOJgHUUUEABBSovgIaLY0FnZhVAw0FZ0NgKoOGILGhmBdBwRBY0swJouHLIsH0FFFBAgVwF0DAaVqC4AmiYMCoQtAAahowKRCyAhiGjAhELoOFcImAdBRRQQIHKC6Dh4ljQmVkF0HBQFjS2Amg4IguaWQE0HJEFzawAGq4cMmxfAQUUUCBXATSMhhUorgAaJowKBC2AhiGjAhELoGHIqEDEAmg4lwhYRwEFFFCg8gJouDgWdGZWATQclAWNrQAajsiCZlYADUdkQTMrgIYrhwzbV0ABBRTIVQANo2EFiiuAhgmjAkELoGHIqEDEAmgYMioQsQAaziUC1lFAAQUUqLwAGi6OBZ2ZVQANB2VBYyuAhiOyoJkVQMMRWdDMCqDhyiHD9hVQQAEFchVAw2hYgeIKoGHCqEDQAmgYMioQsQAahowKRCyAhnOJgHUUUEABBSovgIaLY0FnZhVAw0FZ0NgKoOGILGhmBdBwRBY0swJouHLIsH0FFFBAgVwF0DAaVqC4AmiYMCoQtAAahowKRCyAhiGjAhELoOFcImAdBRRQQIHKC6Dh4ljQmVkF0HBQFjS2Amg4IguaWQE0HJEFzawAGq4cMmxfAQUUUCBXATSMhhUorgAaJowKBC2AhiGjAhELoGHIqEDEAmg4lwhYRwEFFFCg8gJouDgWdGZWATQclAWNrQAajsiCZlYADUdkQTMrgIYrhwzbV0ABBRTIVQANo2EFiiuAhgmjAkELoGHIqEDEAmgYMioQsQAaziUC1lFAAQUUqLwAGi6OBZ2ZVQANB2VBYyuAhiOyoJkVQMMRWdDMCqDhyiHD9hVQQAEFchVAw2hYgeIKoGHCqEDQAmgYMioQsQAahowKRCyAhnOJgHUUUEABBSovgIaLY0FnZhVAw0FZ0NgKoOGILGhmBdBwRBY0swJouHLIsH0FFFBAgVwF0DAaVqC4AmiYMCoQtAAahowKRCyAhiGjAhELoOFcImAdBRRQQIHKC6Dh4ljQmVkF0HBQFjS2Amg4IguaWQE0HJEFzawAGq4cMmxfAQUUUCBXATSMhhUorgAaJowKBC2AhiGjAhELoGHIqEDEAmg4lwhYRwEFFFCg8gJouDgWdGZWATQclAWNrQAajsiCZlYADUdkQTMrgIYrhwzbV0ABBRTIVQANo2EFiiuAhgmjAkELoGHIqEDEAmgYMioQsQAaziUC1lFAAQUUqLwAGi6OBZ2ZVQANB2VBYyuAhiOyoJkVQMMRWdDMCqDhyiHD9hVQQAEFchVAw2hYgeIKoGHCqEDQAmgYMioQsQAahowKRCyAhnOJgHUUUEABBSovgIaLY0FnZhVAw0FZ0NgKoOGILGhmBdBwRBY0swJouHLIsH0FFFBAgVwF0DAaVqC4AmiYMCoQtAAahowKRCyAhiGjAhELoOFcImAdBRRQQIHKC6Dh4ljQmVkF0HBQFjS2Amg4IguaWQE0HJEFzawAGq4cMmxfAQUUUCBXATSMhhUorgAaJowKBC2AhiGjAhELoGHIqEDEAmg4lwhYRwEFFFCg8gJouDgWdGZWATQclAWNrQAajsiCZlYADUdkQTMrgIYrhwzbV0ABBRTIVQANo2EFiiuAhgmjAkELoGHIqEDEAmgYMioQsQAaziUC1lFAAQUUqLwAGi6OBZ2ZVQANB2VBYyuAhiOyoJkVQMMRWdDMCqDhyiHD9hVQQAEFchVAw2hYgeIKoGHCqEDQAmgYMioQsQAahowKRCyAhnOJgHUUUEABBSovgIaLY0FnZhVAw0FZ0NgKoOGILGhmBdBwRBY0swJouHLIsH0FFFBAgVwF0DAaVqC4AmiYMCoQtAAahowKRCyAhiGjAhELoOFcImAdBRRQQIHKC6Dh4ljQmVkF0HBQFjS2Amg4IguaWQE0HJEFzawAGq4cMmxfAQUUUCBXATSMhhUorgAaJowKBC2AhiGjAhELoGHIqEDEAmg4lwhYRwEFFFCg8gJouDgWdGZWATQclAWNrQAajsiCZlYADUdkQTMrgIYrhwzbV0ABBRTIVQANo2EFiiuAhgmjAkELoGHIqEDEAmgYMioQsQAaziUC1lFAAQUUqLwAGi6OBZ2ZVQANB2VBYyuAhiOyoJkVQMMRWdDMCqDhyiHD9hVQQAEFchVAw2hYgeIKoGHCqEDQAmgYMioQsQAahowKRCyAhnOJgHUUUEABBSovgIaLY0FnZhVAw0FZ0NgKoOGILGhmBdBwRBY0swJouHLIsH0FFFBAgVwF0DAaVqC4AmiYMCoQtAAahowKRCyAhiGjAhELoOFcImAdBRRQQIHKC6Dh4ljQmVkF0HBQFjS2Amg4IguaWQE0HJEFzawAGq4cMmxfAQUUUCBXATSMhhUorgAaJowKBC2AhiGjAhELoGHIqEDEAmg4lwhYRwEFFFCg8gJouDgWdGZWATQclAWNrQAajsiCZlYADUdkQTMrgIYrhwzbV0ABBRTIVQANo2EFiiuAhgmjAkELoGHIqEDEAmgYMioQsQAaziUC1lFAAQUUqLwAGi6OBZ2ZVQANB2VBYyuAhiOyoJkVQMMRWdDMCqDhyiHD9hVQQAEFchVAw2hYgeIKoGHCqEDQAmgYMioQsQAahowKRCyAhnOJgHUUUEABBSovgIaLY0FnZhVAw0FZ0NgKoOGILGhmBdBwRBY0swJouHLIsH0FFFBAgVwF0DAaVqC4AmiYMCoQtAAahowKRCyAhiGjAhELoOFcImAdBRRQQIHKC6Dh4ljQmVkF0HBQFjS2Amg4IguaWQE0HJEFzawAGq4cMmxfAQUUUCBXATSMhhUorgAaJowKBC2AhiGjAhELoGHIqEDEAmg4lwhYRwEFFFCg8gJouDgWdGZWATQclAWNrQAajsiCZlYADUdkQTMrgIYrhwzbV0ABBRTIVQANo2EFiiuAhgmjAkELoGHIqEDEAmgYMioQsQAaziUC1lFAAQUUqLwAGi6OBZ2ZVQANB2VBYyuAhiOyoJkVQMMRWdDMCqDhyiHD9hVQQAEFchVAw2hYgeIKoGHCqEDQAmgYMioQsQAahowKRCyAhnOJgHUUUEABBSovgIaLY0FnZhVAw0FZ0NgKoOGILGhmBdBwRBY0swJouHLIsH0FFFBAgVwF0DAaVqC4AmiYMCoQtAAahowKRCyAhiGjAhELoOFcImAdBRRQQIHKC6Dh4ljQmVkF0HBQFjS2Amg4IguaWQE0HJEFzawAGq4cMmxfAQUUUCBXATSMhhUorgAaJowKBC2AhiGjAhELoGHIqEDEAmg4lwhYRwEFFFCg8gJouDgWdGZWATQclAWNrQAajsiCZlYADUdkQTMrgIYrhwzbV0ABBRTIVQANo2EFiiuAhgmjAkELoGHIqEDEAmgYMioQsQAaziUC1lFAAQUUqLwAGi6OBZ2ZVQANB2VBYyuAhiOyoJkVQMMRWdDMCqDhyiHD9hVQQAEFchVAw2hYgeIKoGHCqEDQAmgYMioQsQAahowKRCyAhnOJgHUUUEABBSovgIaLY0FnZhVAw0FZ0NgKoOGILGhmBdBwRBY0swJouHLIsH0FFFBAgVwF0DAaVqC4AmiYMCoQtAAahowKRCyAhiGjAhELoOFcImAdBRRQQIHKC6Dh4ljQmVkF0HBQFjS2Amg4IguaWQE0HJEFzawAGq4cMmxfAQUUUCBXATSMhhUorgAaJowKBC2AhiGjAhELoGHIqEDEAmg4lwhYRwEFFFCg8gJouDgWdGZWATQclAWNrQAajsiCZlYADUdkQTMrgIYrhwzbV0ABBRTIVQANo2EFiiuAhgmjAkELoGHIqEDEAmgYMioQsQAaziUC1lFAAQUUqLwAGi6OBZ2ZVQANB2VBYyuAhiOyoJkVQMMRWdDMCqDhyiHD9hVQQAEFchVAw2hYgeIKoGHCqEDQAmgYMioQsQAahowKRCyAhnOJgHUUUEABBSovgIaLY0FnZhVAw0FZ0NgKoOGILGhmBdBwRBY0swJouHLIsH0FFFBAgVwF0DAaVqC4AmiYMCoQtAAahowKRCyAhiGjAhELoOFcImAdBRRQQIHKC6Dh4ljQmVkF0HBQFjS2Amg4IguaWQE0HJEFzawAGq4cMmxfAQUUUCBXATSMhhUorgAaJowKBC2AhiGjAhELoGHIqEDEAmg4lwhYRwEFFFCg8gJouDgWdGZWATQclAWNrQAajsiCZlYADUdkQTMrgIYrhwzbV0ABBRTIVQANo2EFiiuAhgmjAkELoGHIqEDEAmgYMioQsQAaziUC1lFAAQUUqLwAGi6OBZ2ZVQANB2VBYyuAhiOyoJkVQMMRWdDMCqDhyiHD9hVQQAEFchVAw2hYgeIKoGHCqEDQAmgYMioQsQAahowKRCyAhnOJgHUUUEABBSovgIaLY0FnZhVAw0FZ0NgKoOGILGhmBdBwRBY0swJouHLIsH0FFFBAgVwF0DAaVqC4AmiYMCoQtAAahowKRCyAhiGjAhELoOFcImAdBRRQQIHKC6Dh4ljQmVkF0HBQFjS2Amg4IguaWQE0HJEFzawAGq4cMmxfAQUUUCBXATSMhhUorgAaJowKBC2AhiGjAhELoGHIqEDEAmg4lwhYRwEFFFCg8gJouDgWdGZWATQclAWNrQAajsiCZlYADUdkQTMrgIYrhwzbV0ABBRTIVQANo2EFiiuAhgmjAkELoGHIqEDEAmgYMioQsQAaziUC1lFAAQUUqLwAGi6OBZ2ZVQANB2VBYyuAhiOyoJkVQMMRWdDMCqDhyiHD9hVQQAEFchVAw2hYgeIKoGHCqEDQAmgYMioQsQAahowKRCyAhnOJgHUUUEABBSovgIaLY0FnZhVAw0FZ0NgKoOGILGhmBdBwRBY0swJouHLIsH0FFFBAgVwF0DAaVqC4AmiYMCoQtAAahowKRCyAhiGjAhELoOFcImAdBRRQQIHKC6Dh4ljQmVkF0HBQFjS2Amg4IguaWQE0HJEFzawAGq4cMmxfAQUUUCBXATSMhhUorgAaJowKBC2AhiGjAhELoGHIqEDEAmg4lwhYRwEFFFCg8gJouDgWdGZWATQclAWNrQAajsiCZlYADUdkQTMrgIYrhwzbV0ABBRTIVQANo2EFiiuAhgmjAkELoGHIqEDEAmgYMioQsQAaziUC1lFAAQUUqLwAGi6OBZ2ZVQANB2VBYyuAhiOyoJkVQMMRWdDMCqDhyiHD9hVQQAEFchVAw2hYgeIKoGHCqEDQAmgYMioQsQAahowKRCyAhnOJgHUUUEABBSovgIaLY0FnZhVAw0FZ0NgKoOGILGhmBdBwRBY0swJouHLIsH0FFFBAgVwF0DAaVqC4AmiYMCoQtAAahowKRCyAhiGjAhELoOFcImAdBRRQQIHKC6Dh4ljQmVkF0HBQFjS2Amg4IguaWQE0HJEFzawAGq4cMmxfAQUUUCBXATSMhhUorgAaJowKBC2AhiGjAhELoGHIqEDEAmg4lwhYRwEFFFCg8gJouDgWdGZWATQclAWNrQAajsiCZlYADUdkQTMrgIYrhwzbV0ABBRTIVQANo2EFiiuAhgmjAkELoGHIqEDEAmgYMioQsQAaziUC1lFAAQUUqLwAGi6OBZ2ZVQANB2VBYyuAhiOyoJkVQMMRWdDMCqDhyiHD9hVQQB4MPtoAACAASURBVAEFchVAw2hYgeIKoGHCqEDQAmgYMioQsQAahowKRCyAhnOJgHUUUEABBSovgIaLY0FnZhVAw0FZ0NgKoOGILGhmBdBwRBY0swJouHLIsH0FFFBAgVwF0DAaVqC4AmiYMCoQtAAahowKRCyAhiGjAhELoOFcImAdBRRQQIHKC6Dh4ljQmVkF0HBQFjS2Amg4IguaWQE0HJEFzawAGq4cMmxfAQUUUCBXATSMhhUorgAaJowKBC2AhiGjAhELoGHIqEDEAmg4lwhYRwEFFFCg8gJouDgWdGZWATQclAWNrQAajsiCZlYADUdkQTMrgIYrhwzbV0ABBRTIVQANo2EFiiuAhgmjAkELoGHIqEDEAmgYMioQsQAaziUC1lFAAQUUqLwAGi6OBZ2ZVQANB2VBYyuAhiOyoJkVQMMRWdDMCqDhyiHD9hVQQAEFchVAw2hYgeIKoGHCqEDQAmgYMioQsQAahowKRCyAhnOJgHUUUEABBSovgIaLY0FnZhVAw0FZ0NgKoOGILGhmBdBwRBY0swJouHLIsH0FFFBAgVwF0DAaVqC4AmiYMCoQtAAahowKRCyAhiGjAhELoOFcImAdBRRQQIHKC6Dh4ljQmVkF0HBQFjS2Amg4IguaWQE0HJEFzawAGq4cMmxfAQUUUCBXATSMhhUorgAaJowKBC2AhiGjAhELoGHIqEDEAmg4lwhYRwEFFFCg8gJouDgWdGZWATQclAWNrQAajsiCZlYADUdkQTMrgIYrhwzbV0ABBRTIVQANo2EFiiuAhgmjAkELoGHIqEDEAmgYMioQsQAaziUC1lFAAQUUqLwAGi6OBZ2ZVQANB2VBYyuAhiOyoJkVQMMRWdDMCqDhyiHD9hVQQAEFchVAw2hYgeIKoGHCqEDQAmgYMioQsQAahowKRCyAhnOJgHUUUEABBSovgIaLY0FnZhVAw0FZ0NgKoOGILGhmBdBwRBY0swJouHLIsH0FFFBAgVwF0DAaVqC4AmiYMCoQtAAahowKRCyAhiGjAhELoOFcImAdBRRQQIHKC6Dh4ljQmVkF0HBQFjS2Amg4IguaWQE0HJEFzawAGq4cMmxfAQUUUCBXATSMhhUorgAaJowKBC2AhiGjAhELoGHIqEDEAmg4lwhYRwEFFFCg8gJouDgWdGZWATQclAWNrQAajsiCZlYADUdkQTMrgIYrhwzbV0ABBRTIVQANo2EFiiuAhgmjAkELoGHIqEDEAmgYMioQsQAaziUC1lFAAQUUqLwAGi6OBZ2ZVQANB2VBYyuAhiOyoJkVQMMRWdDMCqDhyiHD9hVQQAEFchVAw2hYgeIKoGHCqEDQAmgYMioQsQAahowKRCyAhnOJgHUUUEABBSovgIaLY0FnZhVAw0FZ0NgKoOGILGhmBdBwRBY0swJouHLIsH0FFFBAgVwF0DAaVqC4AmiYMCoQtAAahowKRCyAhiGjAhELoOFcImAdBRRQQIHKC6Dh4ljQmVkF0HBQFjS2Amg4IguaWQE0HJEFzawAGq4cMmxfAQUUUCBXATSMhhUorgAaJowKBC2AhiGjAhELoGHIqEDEAmg4lwhYRwEFFFCg8gJouDgWdGZWATQclAWNrQAajsiCZlYADUdkQTMrgIYrhwzbV0ABBRTIVQANo2EFiiuAhgmjAkELoGHIqEDEAmgYMioQsQAaziUC1lFAAQUUqLwAGi6OBZ2ZVQANB2VBYyuAhiOyoJkVQMMRWdDMCqDhyiHD9hVQQAEFchVAw2hYgeIKoGHCqEDQAmgYMioQsQAahowKRCyAhnOJgHUUUEABBSovgIaLY0FnZhVAw0FZ0NgKoOGILGhmBdBwRBY0swJouHLIsH0FFFBAgVwF0DAaVqC4AmiYMCoQtAAahowKRCyAhiGjAhELoOFcImAdBRRQQIHKC6Dh4ljQmVkF0HBQFjS2Amg4IguaWQE0HJEFzawAGq4cMmxfAQUUUCBXATSMhhUorgAaJowKBC2AhiGjAhELoGHIqEDEAmg4lwhYRwEFFFCg8gJouDgWdGZWATQclAWNrQAajsiCZlYADUdkQTMrgIYrhwzbV0ABBRTIVQANo2EFiiuAhgmjAkELoGHIqEDEAmgYMioQsQAaziUC1lFAAQUUqLwAGi6OBZ2ZVQANB2VBYyuAhiOyoJkVQMMRWdDMCqDhyiHD9hVQQAEFchVAw2hYgeIKoGHCqEDQAmgYMioQsQAahowKRCyAhnOJgHUUUEABBSovgIaLY0FnZhVAw0FZ0NgKoOGILGhmBdBwRBY0swJouHLIsH0FFFBAgVwF0DAaVqC4AmiYMCoQtAAahowKRCyAhiGjAhELoOFcImAdBRRQQIHKC6Dh4ljQmVkF0HBQFjS2Amg4IguaWQE0HJEFzawAGq4cMmxfAQUUUCBXATSMhhUorgAaJowKBC2AhiGjAhELoGHIqEDEAmg4lwhYRwEFFFCg8gJouDgWdGZWATQclAWNrQAajsiCZlYADUdkQTMrgIYrhwzbV0ABBRTIVQANo2EFiiuAhgmjAkELoGHIqEDEAmgYMioQsQAaziUC1lFAAQUUqLwAGi6OBZ2ZVQANB2VBYyuAhiOyoJkVQMMRWdDMCqDhyiHD9hVQQAEFchVAw2hYgeIKoGHCqEDQAmgYMioQsQAahowKRCyAhnOJgHUUUEABBSovgIaLY0FnZhVAw0FZ0NgKoOGILGhmBdBwRBY0swJouHLIsH0FFFBAgVwF0DAaVqC4AmiYMCoQtAAahowKRCyAhiGjAhELoOFcImAdBRRQQIHKC6Dh4ljQmVkF0HBQFjS2Amg4IguaWQE0HJEFzawAGq4cMmxfAQUUUCBXATSMhhUorgAaJowKBC2AhiGjAhELoGHIqEDEAmg4lwhYRwEFFFCg8gJouDgWdGZWATQclAWNrQAajsiCZlYADUdkQTMrgIYrhwzbV0ABBRTIVQANo2EFiiuAhgmjAkELoGHIqEDEAmgYMioQsQAaziUC1lFAAQUUqLwAGi6OBZ2ZVQANB2VBYyuAhiOyoJkVQMMRWdDMCqDhyiHD9hVQQAEFchVAw2hYgeIKoGHCqEDQAmgYMioQsQAahowKRCyAhnOJgHUUUEABBSovgIaLY0FnZhVAw0FZ0NgKoOGILGhmBdBwRBY0swJouHLIsH0FFFBAgVwF0DAaVqC4AmiYMCoQtAAahowKRCyAhiGjAhELoOFcImAdBRRQQIHKC6Dh4ljQmVkF0HBQFjS2Amg4IguaWQE0HJEFzawAGq4cMmxfAQUUUCBXATSMhhUorgAaJowKBC2AhiGjAhELoGHIqEDEAmg4lwhYRwEFFFCg8gJouDgWdGZWATQclAWNrQAajsiCZlYADUdkQTMrgIYrhwzbV0ABBRTIVQANo2EFiiuAhgmjAkELoGHIqEDEAmgYMioQsQAaziUC1lFAAQUUqLwAGi6OBZ2ZVQANB2VBYyuAhiOyoJkVQMMRWdDMCqDhyiHD9hVQQAEFchVAw2hYgeIKoGHCqEDQAmgYMioQsQAahowKRCyAhnOJgHUUUEABBSovgIaLY0FnZhVAw0FZ0NgKoOGILGhmBdBwRBY0swJouHLIsH0FFFBAgVwF0DAaVqC4AmiYMCoQtAAahowKRCyAhiGjAhELoOFcImAdBRRQQIHKC6Dh4ljQmVkF0HBQFjS2Amg4IguaWQE0HJEFzawAGq4cMmxfAQUUUCBXATSMhhUorgAaJowKBC2AhiGjAhELoGHIqEDEAmg4lwhYRwEFFFCg8gJouDgWdGZWATQclAWNrQAajsiCZlYADUdkQTMrgIYrhwzbV0ABBRTIVQANo2EFiiuAhgmjAkELoGHIqEDEAmgYMioQsQAaziUC1lFAAQUUqLwAGi6OBZ2ZVQANB2VBYyuAhiOyoJkVQMMRWdDMCqDhyiHD9hVQQAEFchVAw2hYgeIKoGHCqEDQAmgYMioQsQAahowKRCyAhnOJgHUUUEABBSovgIaLY0FnZhVAw0FZ0NgKoOGILGhmBdBwRBY0swJouHLIsH0FFFBAgVwF0DAaVqC4AmiYMCoQtAAahowKRCyAhiGjAhELoOFcImAdBRRQQIHKC6Dh4ljQmVkF0HBQFjS2Amg4IguaWQE0HJEFzawAGq4cMmxfAQUUUCBXATSMhhUorgAaJowKBC2AhiGjAhELoGHIqEDEAmg4lwhYRwEFFFCg8gJouDgWdGZWATQclAWNrQAajsiCZlYADUdkQTMrgIYrhwzbV0ABBRTIVQANo2EFiiuAhgmjAkELoGHIqEDEAmgYMioQsQAaziUC1lFAAQUUqLwAGi6OBZ2ZVQANB2VBYyuAhiOyoJkVQMMRWdDMCqDhyiHD9hVQQAEFchVAw2hYgeIKoGHCqEDQAmgYMioQsQAahowKRCyAhnOJgHUUUEABBSovgIaLY0FnZhVAw0FZ0NgKoOGILGhmBdBwRBY0swJouHLIsH0FFFBAgVwF0DAaVqC4AmiYMCoQtAAahowKRCyAhiGjAhELoOFcImAdBRRQQIHKC6Dh4ljQmVkF0HBQFjS2Amg4IguaWQE0HJEFzawAGq4cMmxfAQUUUCBXATSMhhUorgAaJowKBC2AhiGjAhELoGHIqEDEAmg4lwhYRwEFFFCg8gJouDgWdGZWATQclAWNrQAajsiCZlYADUdkQTMrgIYrhwzbV0ABBRTIVQANo2EFiiuAhgmjAkELoGHIqEDEAmgYMioQsQAaziUC1lFAAQUUqLwAGi6OBZ2ZVQANB2VBYyuAhiOyoJkVQMMRWdDMCqDhyiHD9hVQQAEFchVAw2hYgeIKoGHCqEDQAmgYMioQsQAahowKRCyAhnOJgHUUUEABBSovgIaLY0FnZhVAw0FZ0NgKoOGILGhmBdBwRBY0swJouHLIsH0FFFBAgVwF0DAaVqC4AmiYMCoQtAAahowKRCyAhiGjAhELoOFcImAdBRRQQIHKC6Dh4ljQmVkF0HBQFjS2Amg4IguaWQE0HJEFzawAGq4cMmxfAQUUUCBXATSMhhUorgAaJowKBC2AhiGjAhELoGHIqEDEAmg4lwhYRwEFFFCg8gJouDgWdGZWATQclAWNrQAajsiCZlYADUdkQTMrgIYrhwzbV0ABBRTIVQANo2EFiiuAhgmjAkELoGHIqEDEAmgYMioQsQAaziUC1lFAAQUUqLwAGi6OBZ2ZVQANB2VBYyuAhiOyoJkVQMMRWdDMCqDhyiHD9hVQQAEFchVAw2hYgeIKoGHCqEDQAmgYMioQsQAahowKRCyAhnOJgHUUUEABBSovgIaLY0FnZhVAw0FZ0NgKoOGILGhmBdBwRBY0swJouHLIsH0FFFBAgVwF0DAaVqC4AmiYMCoQtAAahowKRCyAhiGjAhELoOFcImAdBRRQQIHKC6Dh4ljQmVkF0HBQFjS2Amg4IguaWQE0HJEFzawAGq4cMmxfAQUUUCBXATSMhhUorgAaJowKBC2AhiGjAhELoGHIqEDEAmg4lwhYRwEFFFCg8gJouDgWdGZWATQclAWNrQAajsiCZlYADUdkQTMrgIYrhwzbV0ABBRTIVQANo2EFiiuAhgmjAkELoGHIqEDEAmgYMioQsQAaziUC1lFAAQUUqLwAGi6OBZ2ZVQANB2VBYyuAhiOyoJkVQMMRWdDMCqDhyiHD9hVQQAEFchVAw2hYgeIKoGHCqEDQAmgYMioQsQAahowKRCyAhnOJgHUUUEABBSovgIaLY0FnZhVAw0FZ0NgKoOGILGhmBdBwRBY0swJouHLIsH0FFFBAgVwF0DAaVqC4AmiYMCoQtAAahowKRCyAhiGjAhELoOFcImAdBRRQQIHKC6Dh4ljQmVkF0HBQFjS2Amg4IguaWQE0HJEFzawAGq4cMmxfAQUUUCBXATSMhhUorgAaJowKBC2AhiGjAhELoGHIqEDEAmg4lwhYRwEFFFCg8gJouDgWdGZWATQclAWNrQAajsiCZlYADUdkQTMrgIYrhwzbV0ABBRTIVQANo2EFiiuAhgmjAkELoGHIqEDEAmgYMioQsQAaziUC1lFAAQUUqLwAGi6OBZ2ZVQANB2VBYyuAhiOyoJkVQMMRWdDMCqDhyiHD9hVQQAEFchVAw2hYgeIKoGHCqEDQAmgYMioQsQAahowKRCyAhnOJgHUUUEABBSovgIaLY0FnZhVAw0FZ0NgKoOGILGhmBdBwRBY0swJouHLIsH0FFFBAgVwF0DAaVqC4AmiYMCoQtAAahowKRCyAhiGjAhELoOFcImAdBRRQQIHKC6Dh4ljQmVkF0HBQFjS2Amg4IguaWQE0HJEFzawAGq4cMmxfAQUUUCBXATSMhhUorgAaJowKBC2AhiGjAhELoGHIqEDEAmg4lwhYRwEFFFCg8gJouDgWdGZWATQclAWNrQAajsiCZlYADUdkQTMrgIYrhwzbV0ABBRTIVQANo2EFiiuAhgmjAkELoGHIqEDEAmgYMioQsQAaziUC1lFAAQUUqLwAGi6OBZ2ZVQANB2VBYyuAhiOyoJkVQMMRWdDMCqDhyiHD9hVQQAEFchVAw2hYgeIKoGHCqEDQAmgYMioQsQAahowKRCyAhnOJgHUUUEABBSovgIaLY0FnZhVAw0FZ0NgKoOGILGhmBdBwRBY0swJouHLIsH0FFFBAgVwF0DAaVqC4AmiYMCoQtAAahowKRCyAhiGjAhELoOFcImAdBRRQQIHKC6Dh4ljQmVkF0HBQFjS2Amg4IguaWQE0HJEFzawAGq4cMmxfAQUUUCBXATSMhhUorgAaJowKBC2AhiGjAhELoGHIqEDEAmg4lwhYRwEFFFCg8gJouDgWdGZWATQclAWNrQAajsiCZlYADUdkQTMrgIYrhwzbV0ABBRTIVQANo2EFiiuAhgmjAkELoGHIqEDEAmgYMioQsQAaziUC1lFAAQUUqLwAGi6OBZ2ZVQANB2VBYyuAhiOyoJkVQMMRWdDMCqDhyiHD9hVQQAEFchVAw2hYgeIKoGHCqEDQAmgYMioQsQAahowKRCyAhnOJgHUUUEABBSovgIaLY0FnZhVAw0FZ0NgKoOGILGhmBdBwRBY0swJouHLIsH0FFFBAgVwF0DAaVqC4AmiYMCoQtAAahowKRCyAhiGjAhELoOFcImAdBRRQQIHKC6Dh4ljQmVkF0HBQFjS2Amg4IguaWQE0HJEFzawAGq4cMmxfAQUUUCBXATSMhhUorgAaJowKBC2AhiGjAhELoGHIqEDEAmg4lwhYRwEFFFCg8gJouDgWdGZWATQclAWNrQAajsiCZlYADUdkQTMrgIYrhwzbV0ABBRTIVQANo2EFiiuAhgmjAkELoGHIqEDEAmgYMioQsQAaziUC1lFAAQUUqLwAGi6OBZ2ZVQANB2VBYyuAhiOyoJkVQMMRWdDMCqDhyiHD9hVQQAEFchVAw2hYgeIKoGHCqEDQAmgYMioQsQAahowKRCyAhnOJgHUUUEABBSovgIaLY0FnZhVAw0FZ0NgKoOGILGhmBdBwRBY0swJouHLIsH0FFFBAgVwF0DAaVqC4AmiYMCoQtAAahowKRCyAhiGjAhELoOFcImAdBRRQQIHKC6Dh4ljQmVkF0HBQFjS2Amg4IguaWQE0HJEFzawAGq4cMmxfAQUUUCBXATSMhhUorgAaJowKBC2AhiGjAhELoGHIqEDEAmg4lwhYRwEFFFCg8gJouDgWdGZWATQclAWNrQAajsiCZlYADUdkQTMrgIYrhwzbV0ABBRTIVQANo2EFiiuAhgmjAkELoGHIqEDEAmgYMioQsQAaziUC1lFAAQUUqLwAGi6OBZ2ZVQANB2VBYyuAhiOyoJkVQMMRWdDMCqDhyiHD9hVQQAEFchVAw2hYgeIKoGHCqEDQAmgYMioQsQAahowKRCyAhnOJgHUUUEABBSovgIaLY0FnZhVAw0FZ0NgKoOGILGhmBdBwRBY0swJouHLIsH0FFFBAgVwF0DAaVqC4AmiYMCoQtAAahowKRCyAhiGjAhELoOFcImAdBRRQQIHKC6Dh4ljQmVkF0HBQFjS2Amg4IguaWQE0HJEFzawAGq4cMmxfAQUUUCBXATSMhhUorgAaJowKBC2AhiGjAhELoGHIqEDEAmg4lwhYRwEFFFCg8gJouDgWdGZWATQclAWNrQAajsiCZlYADUdkQTMrgIYrhwzbV0ABBRTIVQANo2EFiiuAhgmjAkELoGHIqEDEAmgYMioQsQAaziUC1lFAAQUUqLwAGi6OBZ2ZVQANB2VBYyuAhiOyoJkVQMMRWdDMCqDhyiHD9hVQQAEFchVAw2hYgeIKoGHCqEDQAmgYMioQsQAahowKRCyAhnOJgHUUUEABBSovgIaLY0FnZhVAw0FZ0NgKoOGILGhmBdBwRBY0swJouHLIsH0FFFBAgVwF0DAaVqC4AmiYMCoQtAAahowKRCyAhiGjAhELoOFcImAdBRRQQIHKC6Dh4ljQmVkF0HBQFjS2Amg4IguaWQE0HJEFzawAGq4cMmxfAQUUUCBXATSMhhUorgAaJowKBC2AhiGjAhELoGHIqEDEAmg4lwhYRwEFFFCg8gJouDgWdGZWATQclAWNrQAajsiCZlYADUdkQTMrgIYrhwzbV0ABBRTIVQANo2EFiiuAhgmjAkELoGHIqEDEAmgYMioQsQAaziUC1lFAAQUUqLwAGi6OBZ2ZVQANB2VBYyuAhiOyoJkVQMMRWdDMCqDhyiHD9hVQQAEFchVAw2hYgeIKoGHCqEDQAmgYMioQsQAahowKRCyAhnOJgHUUUEABBSovgIaLY0FnZhVAw0FZ0NgKoOGILGhmBdBwRBY0swJouHLIsH0FFFBAgVwF0DAaVqC4AmiYMCoQtAAahowKRCyAhiGjAhELoOFcImAdBRRQQIHKC6Dh4ljQmVkF0HBQFjS2Amg4IguaWQE0HJEFzawAGq4cMmxfAQUUUCBXATSMhhUorgAaJowKBC2AhiGjAhELoGHIqEDEAmg4lwhYRwEFFFCg8gJouDgWdGZWATQclAWNrQAajsiCZlYADUdkQTMrgIYrhwzbV0ABBRTIVQANo2EFiiuAhgmjAkELoGHIqEDEAmgYMioQsQAaziUC1lFAAQUUqLwAGi6OBZ2ZVQANB2VBYyuAhiOyoJkVQMMRWdDMCqDhyiHD9hVQQAEFchVAw2hYgeIKoGHCqEDQAmgYMioQsQAahowKRCyAhnOJgHUUUEABBSovgIaLY0FnZhVAw0FZ0NgKoOGILGhmBdBwRBY0swJouHLIsH0FFFBAgVwF0DAaVqC4AmiYMCoQtAAahowKRCyAhiGjAhELoOFcImAdBRRQQIHKC6Dh4ljQmVkF0HBQFjS2Amg4IguaWQE0HJEFzawAGq4cMmxfAQUUUCBXATSMhhUorgAaJowKBC2AhiGjAhELoGHIqEDEAmg4lwhYRwEFFFCg8gJouDgWdGZWATQclAWNrQAajsiCZlYADUdkQTMrgIYrhwzbV0ABBRTIVQANo2EFiiuAhgmjAkELoGHIqEDEAmgYMioQsQAaziUC1lFAAQUUqLwAGi6OBZ2ZVQANB2VBYyuAhiOyoJkVQMMRWdDMCqDhyiHD9hVQQAEFchVAw2hYgeIKoGHCqEDQAmgYMioQsQAahowKRCyAhnOJgHUUUEABBSovgIaLY0FnZhVAw0FZ0NgKoOGILGhmBdBwRBY0swJouHLIsH0FFFBAgVwF0DAaVqC4AmiYMCoQtAAahowKRCyAhiGjAhELoOFcImAdBRRQQIHKC6Dh4ljQmVkF0HBQFjS2Amg4IguaWQE0HJEFzawAGq4cMmxfAQUUUCBXATSMhhUorgAaJowKBC2AhiGjAhELoGHIqEDEAmg4lwhYRwEFFFCg8gJouDgWdGZWATQclAWNrQAajsiCZlYADUdkQTMrgIYrhwzbV0ABBRTIVQANo2EFiiuAhgmjAkELoGHIqEDEAmgYMioQsQAaziUC1lFAAQUUqLwAGi6OBZ2ZVQANB2VBYyuAhiOyoJkVQMMRWdDMCqDhyiHD9hVQQAEFchVAw2hYgeIKoGHCqEDQAmgYMioQsQAahowKRCyAhnOJgHUUUEABBSovgIaLY0FnZhVAw0FZ0NgKoOGILGhmBdBwRBY0swJouHLIsH0FFFBAgVwF0DAaVqC4AmiYMCoQtAAahowKRCyAhiGjAhELoOFcImAdBRRQQIHKC6Dh4ljQmVkF0HBQFjS2Amg4IguaWQE0HJEFzawAGq4cMmxfAQUUUCBXATSMhhUorgAaJowKBC2AhiGjAhELoGHIqEDEAmg4lwhYRwEFFFCg8gJouDgWdGZWATQclAWNrQAajsiCZlYADUdkQTMrgIYrhwzbV0ABBRTIVQANo2EFiiuAhgmjAkELoGHIqEDEAmgYMioQsQAaziUC1lFAAQUUqLwAGi6OBZ2ZVQANB2VBYyuAhiOyoJkVQMMRWdDMCqDhyiHD9hVQQAEFchVAw2hYgeIKoGHCqEDQAmgYMioQsQAahowKRCyAhnOJgHUUUEABBSovgIaLY0FnZhVAw0FZ0NgKoOGILGhmBdBwRBY0swJouHLIsH0FFFBAgVwF0DAaVqC4AmiYMCoQtAAahowKRCyAhiGjAhELoOFcImAdBRRQQIHKC6Dh4ljQmVkF0HBQFjS2Amg4IguaWQE0HJEFzawAGq4cMmxfAQUUUCBXATSMhhUorgAaJowKBC2AhiGjAhELoGHIqEDEAmg4lwhYRwEFFFCg8gJouDgWdGZWATQclAWNrQAajsiCZlYADUdkQTMrgIYrhwzbV0ABBRTIVQANo2EFiiuAhgmjAkELoGHIqEDEAmgYMioQsQAaziUC1lFAAQUUqLwAGi6OBZ2ZVQANB2VBYyuAhiOyoJkVQMMRWdDMCqDhyiHD9hVQQAEFchVAw2hYgeIKoGHCqEDQoc46GgAAIABJREFUAmgYMioQsQAahowKRCyAhnOJgHUUUEABBSovgIaLY0FnZhVAw0FZ0NgKoOGILGhmBdBwRBY0swJouHLIsH0FFFBAgVwF0DAaVqC4AmiYMCoQtAAahowKRCyAhiGjAhELoOFcImAdBRRQQIHKC6Dh4ljQmVkF0HBQFjS2Amg4IguaWQE0HJEFzawAGq4cMmxfAQUUUCBXATSMhhUorgAaJowKBC2AhiGjAhELoGHIqEDEAmg4lwhYRwEFFFCg8gJouDgWdGZWATQclAWNrQAajsiCZlYADUdkQTMrgIYrhwzbV0ABBRTIVQANo2EFiiuAhgmjAkELoGHIqEDEAmgYMioQsQAaziUC1lFAAQUUqLwAGi6OBZ2ZVQANB2VBYyuAhiOyoJkVQMMRWdDMCqDhyiHD9hVQQAEFchVAw2hYgeIKoGHCqEDQAmgYMioQsQAahowKRCyAhnOJgHUUUEABBSovgIaLY0FnZhVAw0FZ0NgKoOGILGhmBdBwRBY0swJouHLIsH0FFFBAgVwF0DAaVqC4AmiYMCoQtAAahowKRCyAhiGjAhELoOFcImAdBRRQQIHKC6Dh4ljQmVkF0HBQFjS2Amg4IguaWQE0HJEFzawAGq4cMmxfAQUUUCBXATSMhhUorgAaJowKBC2AhiGjAhELoGHIqEDEAmg4lwhYRwEFFFCg8gJouDgWdGZWATQclAWNrQAajsiCZlYADUdkQTMrgIYrhwzbV0ABBRTIVQANo2EFiiuAhgmjAkELoGHIqEDEAmgYMioQsQAaziUC1lFAAQUUqLwAGi6OBZ2ZVQANB2VBYyuAhiOyoJkVQMMRWdDMCqDhyiHD9hVQQAEFchVAw2hYgeIKoGHCqEDQAmgYMioQsQAahowKRCyAhnOJgHUUUEABBSovgIaLY0FnZhVAw0FZ0NgKoOGILGhmBdBwRBY0swJouHLIsH0FFFBAgVwF0DAaVqC4AmiYMCoQtAAahowKRCyAhiGjAhELoOFcImAdBRRQQIHKC6Dh4ljQmVkF0HBQFjS2Amg4IguaWQE0HJEFzawAGq4cMmxfAQUUUCBXATSMhhUorgAaJowKBC2AhiGjAhELoGHIqEDEAmg4lwhYRwEFFFCg8gJouDgWdGZWATQclAWNrQAajsiCZlYADUdkQTMrgIYrhwzbV0ABBRTIVQANo2EFiiuAhgmjAkELoGHIqEDEAmgYMioQsQAaziUC1lFAAQUUqLwAGi6OBZ2ZVQANB2VBYyuAhiOyoJkVQMMRWdDMCqDhyiHD9hVQQAEFchVAw2hYgeIKoGHCqEDQAmgYMioQsQAahowKRCyAhnOJgHUUUEABBSovgIaLY0FnZhVAw0FZ0NgKoOGILGhmBdBwRBY0swJouHLIsH0FFFBAgVwF0DAaVqC4AmiYMCoQtAAahowKRCyAhiGjAhELoOFcImAdBRRQQIHKC1RPw9/+u4OnPl28uZy8Dm4vXV04e/TV5+YeHYGGPz/5xfLy7XX8t/iHn6/jPOwPjl28mS7+xcd7Rs3TGPXbPz/6yaWr6aaWb14+d+rQricbdxu12rbtrx47vXBt6XYSZvnmtQunDu3+9uhFfnVhPVn6DT//1TrKjBp79GBh3ouGp2XBrTsOnLlyq/lj4cTOTZtGLrv16f3HzizcuNV8yd+6cWX+1OsvPDLyAxvLPvLCsfkbzYe9df61kR/7yPcGH7TXu3Vj4cyx/U9vbaw8avitTw/s9rcvjPrYBx/b/fqp+SvpXnvr3eyokUY9+sgg4T8QDa+bBR/fd+5a62vphbcf2jx2nadeOvjhwFfv3vLSwtmjv/ju3NgPX73DU9/d9+7Zi9eX0t8GLC9dnz/x5t5tq3freuPw5+lX6faXvqWrC5cu/vGjo2/u3f7UBDu68xBzu14+eq79Bbx3e2nxj787+PdPjcqy/6PF9gCjx7t8cv+kU4163K4y8e6Phkex4LbdB0+cW2x9jvSWly6ePrpv+9yoj0zfN/dixzrLS4vnThx8cR3LbDFP2rXmn6Hh5m9ah7z9r//4V3+xrh9/9Y//mi71/t+u6+P/4i/+9v10gd7UK0y9wPQVpl+hFcVPFRhXYPoX3dSfOT55xz1Js/T+mml4265fzy+NfDKXv/j45aEMuv/0zZEfPPDOpU/2TwygO48upH9M7fV6N8/uG6+i2/acujzwkY1Rbl8+/dbO0WPM/eTw6S9GrdHrLV18/+fD3fzYxcYDTvTmwrHRI9X2XjQ8jR4+uOO18zcGXnc3Tv1wBGU+ceDMlYEPadxwY/7IznFQ+/W9J/6UuPKdj59/Y9heHnzhyPzgnI0H7fVunH9tx4Mjxt606YGtO37ZtduTu4cZ6xMHTi0Mjtl82FsLJ/Y8MuzD3T6mABpeJxTO/eLs4Nfhi++OIctnjpxdTP/isvkS7vV6y1+ePfSjMYtsnnt817h1ejcvHd//+DDoPLrQetgRP126+MG+0dC8ee6pl0+P/ALe6y19fmTXMGXuKjlioF5v6fQvxiaq5g5oeAgvbtt7/OLgp2jzhbW8ePrQs0M+unHzs4dOL476reWEy5in0dSbW7ag4eYn45C3//Uf/vJr6/rxl//QouHj31zXx3/ta9883ppl6hWmXmD6CtOv0IripwqMKzD9i27qz5ze1CtMvcD0FaZfYdwzNSPvr5aGt+375NpEz+HtS0d/0Hna9M9Iw9vfudTx++fxNLzz0GejfwN/d8fLF98ZqsNzr358deQfuFejXf1k/xAdRsOdL5h13IiGh3HquNsf2TmMW4fT8IMvHOsg3dUX+uobN079cJgOb91x4NSVbm8dQsMP7j41hoVXHvfKqd3DdPjrQ3H5xhAafuL1+e4xVx5t5f9vzb/+xBgDHfdcVPrhaHh9NPxy59+xjqThx/d8OMZP772Mb186OkqHH993+lrHV9qVz4HG/187/YtuHV4PDffXW154+5mhfZ7v+BvhxhBrb14/u69Th9Hw0LYTADca7mLGZw9fmOR3lb3e8sWjI3X42aMXJ/lkG7uMeUZm7noOZ/02NLz2tWHoW9OryNS0Q5eGPjveocCIAj55+3GmrzD9CiOepFl6V6U0PPfGpwO/SV1evnlt8frS8iCMXv94d8dx3T8bDT95+MLgDBOcGt79h8mwu//6XTr96raOo7g7j10cfOjby0tf9P9162CxC291LfIoGl6HAnc8C48+jIY3wo6P7P3tiOOww2h464Hzk2Fpr9e7Nf/GNwfO8HYfUl79KtFJw4+9MSC0t24szN/5sTBAxrfOH9g6EOSRPSdG7baThn84yNE3rtx91PlB2b5y4nsDmx0Yo1L/HdEBDa+H53af7v6qNYKG547MD3wt6i3fvHZx4fLS7YH33ByiqHMPbX+3429gl28vLfYvpDSwzu35Q10au14a7n/xPfdy5xnkZz68vPqrxsoby8s3Ly92fO3tLX/+ZscVM9Dwel577WcBDQ8S4r7Tgy68vLx09eLi0uDvCHtXT+4eXOLOLXPdCy33f6y82Ff/f+n0vmGXluhexjxDsldyMxpe/dwZ/sb0KoKG+3Wn7zj8OfIeBToLTP+i88nbDzt9x86nZ/ZurJOG/+7k9eZTuXz1D4e2r12Ed9v2V3/f+qeqF349aKApDX/x+10/+fHo/76/c3CRQUPcdvCzwd8q35l29Knhn318tbmn3vLiJ7/avfKI2372q9PX02W7vPvl1kNf//Twz761ZpdP/vjQZ+mf47sW2ZzS8NJnh0dn6b/3B41H6VD4wUozfgsaHkFvQ971wskWqd6Yn29eI6Kbhgdg+Mb8W3uf+PpdEt362A8HziCff62ltG/MJ593vVsL88kZ5C4a3nMm0ehbV1oXcHhkz6nm6L3egNLubCNve7cdNPzYkT8lo7avVvHgjiMtsB7YLAgeXwANT85zP/rdYvKSXPvJcBp+9Vz615fLX/5uz3fWzoTO/fTNc8mX92EU217n6h+P7B65ztXTe9uYOPdQQsM3z+5L9v7UMz996eV3zy62Lz01f3hQmZ86cmFt931AvvBu8zLHT+1++9MU6a6d/Pu1Xd8bLKXhxQ9f2vXT0f/918mvgDy491m7BQ23JXH78fTzc3nxRHJd4W17T7QuEHHhcCfqtkV3+erJg6sXKJ7bfvDk1fS3p0un97Vn6f/cPPd+jRjSp6tZDbeh4eRrR/dPUhX5z69/Me7Hf09+l9rrpWd+//LFj8Yt8EX+FRLg2sgI01eYfoXu58etCgwtMP2LburPnOk//aceYfoK068w9CmarXdUScOvJpc2XP7s0OCFEebS+/Q+P7wmpPfsMqXhTFfLTR93ean5Z8pRNLzt8OfNF2bnJSN2Hv8iuc+5f2oB66Hkz9w3z+5b4/LVez6X/FG4d+3kT1bftfpGcmp4PVdYXl2h9jfQ8BD/HQFzu5s0fOXMgae3bnq9qbadNPzciYRguy4Z0b7yw8KRbyRnaZs0fOtPx174+qZkkl4HDbcU+/wvO65T8cRbyUVMr/x2R7L35PzvlTMHdmx9oDlIr+uCEskdeldOPDcYub3Z8wcG7+OW0QXQcMKjA3y59t7nj3/Z+Ip0M/kOV8NoeO7t5if1kOszPNW6SEUXxb6Z/MOhpXMvdxzC3fV2ctn86x/tWhv+3r6Sr4dtGl7Ze3ue3oUjK+9aWXDu3UuNFr3FD58fhNdnPkiOFV89/VL7PikND2vY/qiVGWq/HQ23GHH7iUSGF493Xcmgpb4XDrUW2bJly9zh1l97DJ4KHjhVfPHo9oGFzLP2a0RXn4FgtdyAhtdeGEPfSlVk4DLAQz9u7R0p7bSvRLx2v+FvTb3C1AtMX2H6FYb38R4FOgtM/6Kb+jOnRcMb+PSfeoTpK0y/QufTM3s31kjDc+83/4DViZsPb370uRNNSO1g2T8DDT+ZrvnFbw590jgo1DHDCqHu/E3zt/Cd2N2n7fRk8dInP0+8e+fvm4ssnnouee/qYd63kj+aX3xnZYbVO7RODa/jm+8NLlXpLWh4tL51vXcFZG9dOXngibt3GEvD6endhWPdV9fd+svzzV/551/vpOEb82+9cPdA8cokdz+og4ZTo+24Q1+BHzzStOFbZ/Z30vCtK6cO3LvGRbJqBw2nB41vnHwhWXAlaTr8wrHUwTs/xI1JATQ8GTU+k1zP4X99P7T3mg47jDUPJX8HevnEkEsJz6Xyu/jBd1vuuT25esPlE7vaVnv3/unDXTo6sLWJaHjuobb8ftC+cvG+c40v9b35QwMPdGeef0n+9nbh7damNqPh7m7dT267HhpuUeLBc42zvMvnDrbefe+nL55s/oO1pdN723drnfUdduJ1d7JOb/HEgA2bp/EbkY4+7fDV/BwNN14Yw96cXkWmph26NOzJcbsCowr45O3Xmb7C9CuMepZm6H010vC+prf2Lh1dM80EIpO7dbBsyrg5Tg0nj9i7fOIHDye3dMxwb+Dtp1Ls/lmykYbwfuuZ5lUvWpdxePK57zfe+8y3hyySnqdGw428Q4oNeYGN+EA0vCKVCbqNvLFvmrcWkiszjKPh/cl1Hc6/Nuy7vT342F8/vWPHyn9//Y3kkG9fZG+cf+3ptRtTXe2Q3+Rxb5za3b2vkdTbPzV8a+G3ex9Z+9iR939g06ZvHGta88JbawM3I48dvnlnb3cUQMOT8Nyut5uXtV/+47/MzSVHdIfQcHoc+MvfbR/6WG1FbR0Kntv1XxsXW3h+25B1UrHdOA2PRdsWMe/pnufx5Jw1Gu6uNBkED34sGm5Z4rZnX1z78f3VC0C07rXlaPPvdAZpuH3Wd5B87y049o7maf7Zkw2vvhDRcPOFMeTt6VUEDffTTt9xyBPkZgWGFZj+ReeTt992+o7DnqEZu71GGh5Bcs13JX9Wu/7xrjbw5abh9Ejv4qmdmx+dlIbHjZqNLDc/+nCboV1Qov3CyFAbDa+JZ3JEt0PiVu6545UDL9y7RvDKh4yh4ReS6/WePzBi8RHv2n3gwI7UlMfq6mMp0nafzP1ecq2L+ddTyX16/4Gdj6RTjaPhBxKRbh9Dvpdx62vNE9JD2Xql8Er8dJK634uGB9Gtfcvjhz5vnEe8/enB/rV310/Dgza69kApIg+71MPa/Ts98bsnmpe82PAFJdqnhpfPvdn5cGNvTDf1+Zvtc69ODY95QkcWRsOr1raeN5KzvL3BC0ocSq4mcfXki0MXT88fdyw19COb7zBPs0YVb6PhCWBiehWhS3Rpgheau+Qv4JM3z6fe9B3zP7dFroiGh0Dek79q/n52+bNDTTW+83ZeGt6ZXL9i5du7TXZqOJlk9dq+23526MRnl67eXF6+fee/m5cvfHJsz7CzwBP65g+ONc969VbmTOO41vCQF9WEkR99GA1nMcfRNJxesWHlFO3Wx374xqnzCzdu3ftx48r8mWP7W/g7WkLH0vCmbySMe+v8gcbh37uu+sQbze8Id+v8gVSfuwZI1uy4oMQDrYsgLxxrnHS+u+DW5BLGvSu/fa7rgeqW37GvTDQ8jufSqz0sXzhy9+oKf04a7nUc+G276sDY6SUveuv/NnSrELk3+ca3tz99eeCxxg7Tv8Pff9T8p/uLH7avkjH2bPJEj7Kx2Wbgo9Dw+h2xdY3g5QuH2t+Gbu/p5qVShl1N4u4jp9ctHjyAPH4+84xvNHv3QMMT8ML0KoKG8/jUBE+WuyjQLOCTt19j+grTr9B8Vmb4bTTcqXjbEpPtLQ98x7aHNz+agGxvugtKPJNc/njp9Kv3pkrGGHpBiYRiF9/ftvnJHx/+vPnb8eYLeHnx1M+3TWyUa+b75HO7f312Mfne8EunX922doe1NZN5Vqm6656d8d2IhvOI5GgaThj0zjep+/reE39qf1Pmlc+du9/qbSIVHU/DD2x64vUm/fZuzB/b/717p4Af+d5rp5Ixbs2/3n0R5LTSeBre1Pouc7eunHl992N30fnBx3a/NX9jZbf9/79xavd4j54oSDrnrH8IGh6thOn3ZFteeHvlohCT0HB6jLfX9f3l7j56qqi93tLp/atQO/6NuV17D5+73DjY3OvdPLuvf7S5/V/yL3a6zibP/fTN09ebKy2d/kX7QsODy3bd8vzRheY6l48PXh/ZqeGBJ6irZPtJvHcfNLwuNNz27CvHLya/z1y+eHTwG9Wlh4ZHXwWhdUmJwRPIowY0z6g6M/0+NNz8nduQt6dXETTcTzt9xyFPkJsVGFZg+hedT95+2+k7DnuGZux2NNwBkXPp5XR7C8e2r7nn6v1TGv7i97saF+odfHvopXsffXhzehR36ZP9cysPNxENp9NefGdn+ifIjlfs0meHn1l5iJFimyBvstDtyyf/6VtDPnb4RyVLrPxkOlUfMsPq0xTyDaeGx57NnOQOo2m4/d7dyfUlVl6djf+/tXDs3jeaG22dk9Dwpge2vnBsYZhDNx507bvbjX7QTQ9MQMMPbNr0zQNnrjSWH/Jm47vbzbrkTvJCWtd90PAonns8vXrv5eNr30duEhp+KP3w7pO8m+eeT67J23+R/69vczcEBFenfffSkM+G3vKXH738ne4PT2i417v3T3Tu/kOd/v+mS96+fPKfn1oHVq7ONvdQ6wjz0rmXO9ZJaXjxw5ca11MefHvoFZY7Vm5MMrPvRcNj/TA91pu8uJcuHH6xfWK4v15yJeLexaMjH2Ndd96yZYt5Ruas5Z1oOPlU7P5JqiL/+fUvRv747x2/OU116cWP1r1A69vQbWCFqUeYvsL0K3Q/P25VYGiB6V90U3/m+OQd+uzM4DvQcJsO2y58+9LRH7Tvc4cjUxoe99ro+nZtd5d9LpHcm2f3Pbn2cBug4aWba+c4lm9eu7hw6eL1tVtWx1x8v38t43H/dSHv7cunf71/e2PIgUW6Pmr1gQffQMMDTwQaXhfGDbtzG39T5Uzee+vGjbXfCt+6sTA/P7/QuGXlVXvj1A/Ta/52PfRkNHxnmK/vPZIe1V15oP7/Xzl/ZG/r6sldD7dCxpPRcH+Frc8dODWUpW8tnDjw3NZRD5RmdM9WATQ8ghFbdvnB8w1nnIiGWxdV6PWWL37wUvIt5p56qevfzGyQhpe/PHv4F99N1k9316Lh5udv+vbShXdf/n7XueNGgW593jzgwsOOMLcuKJEOMPizjVxkY5Jpo94HDY+lxE6KXbpw4uDubcM+NtXeMQeB0zuPceRhNGyeYc/FrN6Ohgd/dR+4JdWlr4358c3jAwukNjTm47/2l//wr3+GFRLg2sgI01eYfoXBLm5RYGSB6V90U3/mTP/pP/UI01eYfoWRT9PsvBMNJzw695PfJNfS7Q27ZsLABSXGvSSG0fDcW/ONfyS6fO6N5BING6Dhe4Nc//TQTxpLffvnxxdaQDx/eBTv3s0yFHmXr88ff8Wp4eTFM0DkG38vGm5x28Z+muDvnUtGNNdJ3nvv0+bWn441v5fd1qcPnLqyRsb9O1058Vxzka63J6PhR15oXcCh+5eQ/qnhgSsRd+LsRDTc31FytYruR731p1MHBq5EvGLQnY/uxpUCaDjF0wYUppfc/fJ3zyT3nIyG5x4/+MfGl8y7r9+bl8+dfu/4B++d/OPl1S9zy7ebd9sgDd9Zfvnq5+/tmezUcPen09qty4vn3ty1TiDe9s9nVzfVX+n2paNrR61TTU7lfe1hu99Cw2k9NDyWDjtp+M6ra+niyUPjTw2PvtTwli3pt5DbIA2bZ+zzOGN3QMPdv8Int06vIlPTDl1KnhE/UWDCAj55+6GmrzD9ChM+YdHvhobX/G7AhZcvvjPiaG2OU8NPHjrX+Beny58fXr2UxF1n3CANp0ePV8iyfaGJxfefW3nXWoT0ll+cWLjUP3e8cGnx5nLzD9p3X/dXG9e+aHzgUFDu/mxxatip4RVW65LWjYtkgr/jafjW/BtPDA7Quj5v79aZPWOmnYCG0+8yd+fz4u5R5c7Tyt2DtUcdT8Nbf3hq4GISN67M3/1xJbnQcH+kK5Mckd74s9Oef0zVMA+EhhPwXdO3Zz683PgKcO3k36+96w4fT0jDD21Or1bcWLPx5s2z+z5oXiBigmsN//Pv7n6tu7hweSlh5bvLXuu8RnB6anhpceUL5spSHf9oZ/n6R52XLW4Y+lqZtgv3r4wx/FLFaHjIa6+zbftGNDxWDF88eu7ivR9XlwZ/R9h1seF1HQRe1523bNlinrFPWQ13QMONL33D3pxeRdBwv+30HYc9Q25XYEiB6V90Pnn7aafvOOQJmrWb0fA9FZ175ffp91hbvvqHtWv+NtxzVVFbNLw8cJXB5JYLv179wNU30m92d/vS0Z2r77r3xoZouH30eG34nb9ZbL6A122y39rz/qXk/FJv+eI7g76c0LBvQ7fWf4CAh73LqeEsbrg+Gl449s0hOrnnTPPk8I2TL4xmyrE0nN6h17+wb3pEd+vTB86kUnvlt8+NftDx1xr+xhvJd77rDZ5HfqR9+eNb5w/4TnTrfSmi4U6e+9F7zS8+XZfKnZiG5x7a/J1XT345KFMrX92uf3roRw/NfdCU6PWfkP3Ovva/tLl96ejAd35LaLjr29Btnnto4DvR9bq2v8bBq2T5zJFP06+3Sxfebl6CY+BDWjS8dsnj5DcjK79VmT/c+UxVeyMaXi8jzr146PRi+nk4cC54Xdq7rjsPTmuewSY13IKGV770jfj/lor8738x8sffvj+4VKpL/9vIj/+Lv/rHsReU2MAKU48wfYXpVxgs6xYFRhaY/kU39WdO68i/T96RT1j0d6LhPsKu34UHLiixbmZ9uHVR486L/05Ewz/5+GrzZXj704NDCfK5E1807nrz7L6h92wj9SpitsbuXf94d3sRNDy03mrG0W+g4fV6XOf9R9PwgfONz4Ve70/HHutcpH/j/sSG598YrbSp/M6/0Vr2G0cWmg9849TuTn598MD5Jkj3zr/Webe1xcecGt6b7KG38NYTnbt47rfJweIJSHqIp68NVtkd0HCHLT7fvqJ+x0UV1kPD/Yd4fNeRjy7eTGHq5rULH+zbdmeA5BvWDUHbVYQd8kbrm+Z1fNe7SWi4v/hT/9L8B0K93qWjHQUS6l23C8891LrW8MV3kwWH7NF9Vgqg4Q0x4rPHm3/p0+tdOJx8N7r0GhQDcpw85Hrum3xg8yfmadao4m003Pwt5ZC3U13qupbwkA9cvTnRpc5rCa/edcgbU68w9QLTV5h+hSFx3KzAsALTv+im/sxJaXgjn/5TjzB9helXGPYMzdjtaPjhuVc/vtq4qkOvt7x46uetCzt0QV56anjdNPzjE9ebr6Wuf4nav4xD530+PfqTJj4mFNv/DjVtq127c/sPssPv2bXlu+tsSxbpXTuZDPPw5keTeZwaHl5y7Xlp3QcNZ4HF0TS881RyMHcU+O5O7jrqnn0GHU3DW5OpegvHHusk2k0PbNqRKu3866O/A95oGk63cOvM/qGFUzK/cWr30HtWZr4TdkDDgzR8pHlF/d7y9XuXKVq76kL/OgzXmsq7dp8PXx1nmo9v/28v7frp83dFeOXO3z3xZeOL58LbI76V3MqHrBBhc/6nErDuXf9oV/O9cw8lXwxHAvSu09caA/UuHOl6uJXFn3l7vnVe+NyRkeeF735gemoYDY96ZldSr90HDW/QEVPR7bW+1Vx6EnjxeALHySPOpcg8/lLDyUev/cQ8ay2qeAsNN7+0DHl7ehWZmnbo0pDnxs0KjCzgk7efZ/oK068w8mmanXfWTsODLjzuOhKrnDclDacfvr5X1NLpV1fHeHjzoz8+2VTmUTS87Xh6anjPRmj44eQsc/879TWHQcOtGhv5KRqekOFG3y1B2IFrDT+QGuifjmwdulrqqtPRcArHg1M1vPWV5KDvjZO7hyHyndtH03Dy3t6oLTx27E/NX44GTj0PrdSYvOb7oOFBdHu3ednf5qvsUXgdAAAPE0lEQVRrgrcX3l7Du8GVh92Sku7V0y9tZJH+4i+fbv797AD+Tk7Dm9MIix8MvWTwoAuPuY7EagQ0vJpiA2+g4Y06Yqq/LdJ98WTyz9pah4obDzl3+ELz14OrJ19svHNdb5pnXbnC3xkNNz9xhrw9vYqg4X7a6TsOeYLcrMCwAtO/6Hzy9ttO33HYMzRjt1dNw1O48PQXlMhIwy2rvXbyZ0M48slfJb/1Tk86J3/G7V0+MXDh49WTrYc+b34WoOEhtTfE7ncjo+EstjiGhremXDr8ig3fO9G8yMKU1xpOafjWmVeGi2oyfy8nDY+6ekbq4D00PPwJ6nyVouFBlUtVtPnlY/zbKQ0f/GPzbPHlEwMX/71LwLuTI7rXTv60dUQ3PQv85e+2D85875Y3k6+ZU9Dw9uS78PWGHenduAu7oMTQJ7H17A/5KRpOjHDv6ebB9eVzB5P3Nn/Swt8WDW9pHeJdPL69+cGrb29PzwwPXHrCPMmFOwb6rIas7w00PP7raAYVoUv9zHRpghebu+QtMP2LzievT951vCbrpeG5V88mZxl6vaufjP6+cy0BTG03ZdZVRR3+Rvrh63jKer3Bg7o/Sy43vLxw7JkOl0y/612vt/h+8h3kdv0h+feuV//wd93D/+D3yW9QOxDZBSVaL5V1/xQNd6Lbem9MaLXjfO7WXyaXG75xcnfXweEn0m/fduvMnjFWmOJvm1YfO5ZcavjWmf1dD7pp0wNbX0umG3XpiQlODaeXS+4N/557qYP3Rl16YkyHkWecZ/dj0fCg0OWj4bl0qaVzL3dcKSL9lne9L98bkN+Xkn9p07t28u+7ufCZ1HN7A4ic/I3qAByvHVV+Kj193Ou+oMQz715qynevt3zx3QmuI7Ea3Knh1RQbeAMNp6h4KPlbkeULh7ovBTF38Fzyoh1E5N3pueHlcwcHV2qvcvXk7nSaLVvM0/hzQkefdq96fo6GG6+MYW/SpX6Z6StMv8KwZ8jtCgwpMP2LDg33007fccgTNGs3V0rDgy68tD4Xnv7U8Lbt/9+Pd/1kzH+HPmuc27j56aF79//B9idb2vhc8ifUXm/ps8O7kvt8a8+py8nv33vzh5M7PLw59eW711zelhLztld+c7H5z2t7vd4Xv9me3se1hrtJvV2p9QwmP0XD61XgzvuPo+FND7ROyN5aOPbCI82lHtxx4ExyReLelRPPNe/Q9fZoGt709LHmGeRe79b8WzsGdHjrjrfmk+9C11s48o3RnJqcgR48Ytz6rna9G6f2fn1gwa/vTa6q3OvdOrO3UuHtemYnSoGGB1XuO8/v+ulL4/77XfPvHBc/XLn/j55aA9b+93N780LrWwN8eO/7zt2927b9v1tM73DuzY5LN6THinu925dP7E8faO6pPR9canz97f/eb/GD7ybDTHSt4ce3/+Ltc9fTr769+cMD34ZuWhd2anjwhbeuW9BwiomtCzz0ekvnDr2You7ci4dOX01f2svnXkmX2bJly/b0Cg+95asnX9nWuNe2V062Vrl4dPBosXnW/vzZ1acRtLI30fDaK2PoW9OrCF3qx52+49CnyDsU6C4w/YvOJ2+/7PQdu5+fmbu1Shp+9WzrD3y9Xm/59vLo/y78OsG7zY+mx37XfWq4tVr3T5Or+o66iPAg7PZ6t69d/Ozj4+//5sQn8+m3s+u/ihdP7RwQzG2HPk9/k9+/49LV/ncI6v+32Ppm8HfeO3Ch4fa1hnu9MWH72T//1cAw3UEquRsa3jDMNT9wPA1v2toW017vxsL5k8eOvHXkxJn5K6nO9qX0ldHfC66PrWNo+IGtrRO8vV7v1pXzJ17f/8LTO3Y8/cL+10+cH3jgISeam7Y7hoY3fTM9rtz/9L0xf/LYa3t27Hh6x449rx07OZ8qeF+t3/hm8yG8PUEBNLwuj1u7c3KRh2HXW9g891D7JO/al6nLSwkK99+x/PmbHceKO4i5f+fezWsr3xmvY6n+d3hdm/beKePW38kO/ibizrrt/1k693KLmLe3zwv3P2RwtfSWyyf3p4ednRoeeIJanUf9FA23RbF13PfOy3h5afHivR9XO34jPcQsn02vFnHn1X1vocWlgd92Lp54tj3KnZ+b5+6vJMP6dEar4EY0fPd1MfJ/p1cRutQPPH3HkU+TdyowWGD6F51P3n7V6TsOPjczeUuVNPzORr4nzsV3WlhZGA0/+vAz77T+MerQV+yQK048vPnJdFNDF7j7juWL7wz68iANj1ml/+4/D6zHdWQ03BTeDb89AQ1vemDr7pPpKd7hr9cr3VecaHPhOBretOnB3ScG8Hf4w/Zu/enYCw+2H2XgBOs4Gn5g0xO/PN/G3xGP2rtx5sATA48ydozq74CGN8hzk9Lw5rnnjy4MaFLnK/n62X0Dh3NXcXAuhdTOBdZuvH3p6I9Sh72zzRYNr91/+FvL1z8anGrfuUFmG77Evfcsnf5FOlK6oxG8vhrBG2sF0PCgIj579OJkn2p3XpJLp/elp4obCz57+MJkL/Hli0e7Ybi/mHl6I/s0glf0Jhoe+7Uih4rQpX5mujTBi81d8haY/kXnk9cn7zpek2h40ljl0/DmRx9+5q1PWxdQHtje8tVPDnddiXgFvp/8+fGFCX4Hf/vy6bc6XRgNr5RczxUkWoqNhjfMwc0PnIiG+1f1feHYQvt8cPsT58b8Wy8MXPahm0HH0/ADmzY9uOO1yZz2ypkDO8a78KZND4yn4U0PbHpkz4mxW+1v/dbCsZ2PcOGNFEDDf3Yafmjz3POHPx/zZWr5y9/tGe7Cd0Fwbv977SsktT/x+z9f/vLsoS4X3ty6oETXx7Zuu/rHN3d1TYWG14h2g6+fVMk3sAga7tTEZw+dXpyAh5cuHt871IXvLvzsoXPjfn969dyh4S68sop5Op+oem9Ew60vM10/pUv9KtNXmH6FrmfHbQqMKDD9iw4N9/NO33HEkzRL70LDkz6bIWi4L4zf/vnRTy4N/sPa/rUhFj4+/LNvtRSy86fbXjl2emHwn/ndaXXz2oVTh9ILGbcwNPk2dBP1dWo4dWQ03BTeDb89KQ33hXfr0/uPnb/Sdaj21pXzR3Z/Y/x1JFYZcSIavrOpR7437EH7V3u4cv7Y/qcnf9yJaLg/5IOP7X791PyNbgy/dWP+1OvpBZc33L/OD0TDG1C5/odMfmr4HgJu2//ehfY1fO9+jbp08shL3deR6JjtqT3vnr3YcbWk/lJL1+dPvDlqqclODS8v37x84dzb+3Z1XPX4LomiYTRcMO3NvXjwxIWO60f0P0eWly6ePrq3eengURvZtvd490JLVy8cn3gV84xqXN370PAEf86aXkXoUj/z9B0neLLcRYFmgelfdD55+z2n79h8Vmb47SppOGW4ThudgRu3/eDHu/7pV8ff/83xX/9i1092tr6h3GQbvPO98u4u8s6hPT/58TPfbimwn/5ZCqDhr0wVtz72X3a88MobR9468sYrL+z4L49NeFJ41YU39sYj39yxY+f+N946cuStN/bv3LHjm/flxO6Dj/310zv2/vLIkbeOHPnl3h1P//VjEx1P7j4rvbGNz+BHoeEOfp36ROeINfvf4+7Vwx+8d/yDtw/uf+mZ72z0sZ767vd/+tLLb793/IP3jr65b9dPn9824kG9a/YKODU83hS3Pfvii3sPHj1+/Pjxw6+8+OL3t485KDxsxbnt37+3ztGDeze+zBbzDCtc0+1oeIaRwtYUUEABBe5nATT8Z6G9yeDVQyvQXQANf2U0zD0VmK4AGp49NLSjGgqg4Zo40V5npwAavp9q4LEUUEABBWa4ABrutjm2q8BXWAANo2EFghZAwzUwoj3OXgE0PDtYaCc1FUDDM4wUtqaAAgoocD8LoGE0rEBxBdBwUBY0tgJoePbQ0I5qKICGa+JEe52dAmj4fqqBx1JAAQUUmOECaLg4FvwKD6t66EIKoGHCqEDQAmi4Bka0x9krgIZnBwvtpKYCaHiGkcLWFFBAAQXuZwE0jIYVKK4AGg7KgsZWAA3PHhraUQ0F0HBNnGivs1MADd9PNfBYCiiggAIzXAANF8eChRxcNcZXWAANE0YFghZAwzUwoj3OXgE0PDtYaCc1FUDDM4wUtqaAAgoocD8LoGE0rEBxBdBwUBY0tgJoePbQ0I5qKICGa+JEe52dAmj4fqqBx1JAAQUUmOECaLg4FvwKD6t66EIKoGHCqEDQAmi4Bka0x9krgIZnBwvtpKYCaHiGkcLWFFBAAQXuZwE0jIYVKK4AGg7KgsZWAA3PHhraUQ0F0HBNnGivs1MADd9PNfBYCiiggAIzXAANF8eChRxcNcZXWAANE0YFghZAwzUwoj3OXgE0PDtYaCc1FUDDM4wUtqaAAgoocD8LoGE0rEBxBdBwUBY0tgJoePbQ0I5qKICGa+JEe52dAmj4fqqBx1JAAQUUmOECaLg4FvwKD6t66EIKoGHCqEDQAmi4Bka0x9krgIZnBwvtpKYCaHiGkcLWFFBAAQXuZwE0jIYVKK4AGg7KgsZWAA3PHhraUQ0F0HBNnGivs1MADd9PNfBYCiiggAIzXAANF8eChRxcNcZXWAANE0YFghZAwzUwoj3OXgE0PDtYaCc1FUDDM4wUtqaAAgoocD8LoGE0rEBxBdBwUBY0tgJoePbQ0I5qKICGa+JEe52dAmj4fqqBx1JAAQUUmOECaLg4FvwKD6t66EIKoGHCqEDQAmi4Bka0x9krgIZnBwvtpKYCaHiGkcLWFFBAAQXuZwE0jIYVKK4AGg7KgsZWAA3PHhraUQ0F0HBNnGivs1MADd9PNfBYCiiggAIzXAANF8eChRxcNcZXWAANE0YFghZAwzUwoj3OXgE0PDtYaCc1FUDDM4wUtqaAAgoocD8LoGE0rEBxBdBwUBY0tgJoePbQ0I5qKICGa+JEe52dAmj4fqqBx1JAAQUUmOECaLg4FvwKD6t66EIKoGHCqEDQAmi4Bka0x9krgIZnBwvtpKYCaHiGkcLWFFBAAQXuZwE0jIYVKK4AGg7KgsZWAA3PHhraUQ0F0HBNnGivs1MADd9PNfBYCiiggAIzXAANF8eChRxcNcZXWAANE0YFghZAwzUwoj3OXgE0PDtYaCc1FUDDM4wUtqaAAgoocD8L/E8KM+GJPOR6OAAAAABJRU5ErkJggg==;" vertex="1" parent="1">
          <mxGeometry x="381" y="715" width="1886" height="468" as="geometry" />
        </mxCell>
        <mxCell id="Bnx4yGOkbPhiIPonUfCJ-6" value="" style="endArrow=none;html=1;rounded=0;entryX=1;entryY=0;entryDx=0;entryDy=0;exitX=1;exitY=1;exitDx=0;exitDy=0;" edge="1" parent="1" source="Bnx4yGOkbPhiIPonUfCJ-5" target="Bnx4yGOkbPhiIPonUfCJ-1">
          <mxGeometry width="50" height="50" relative="1" as="geometry">
            <mxPoint x="1350" y="810" as="sourcePoint" />
            <mxPoint x="2260" y="250" as="targetPoint" />
          </mxGeometry>
        </mxCell>
        <mxCell id="Bnx4yGOkbPhiIPonUfCJ-7" value="" style="endArrow=none;html=1;rounded=0;entryX=0;entryY=1;entryDx=0;entryDy=0;exitX=1;exitY=1;exitDx=0;exitDy=0;" edge="1" parent="1" source="Bnx4yGOkbPhiIPonUfCJ-5" target="Bnx4yGOkbPhiIPonUfCJ-5">
          <mxGeometry width="50" height="50" relative="1" as="geometry">
            <mxPoint x="1350" y="880" as="sourcePoint" />
            <mxPoint x="1400" y="830" as="targetPoint" />
          </mxGeometry>
        </mxCell>
        <mxCell id="Bnx4yGOkbPhiIPonUfCJ-8" value="" style="endArrow=none;html=1;rounded=0;exitX=0;exitY=1;exitDx=0;exitDy=0;" edge="1" parent="1" source="Bnx4yGOkbPhiIPonUfCJ-1">
          <mxGeometry width="50" height="50" relative="1" as="geometry">
            <mxPoint x="1350" y="880" as="sourcePoint" />
            <mxPoint x="2260" y="710" as="targetPoint" />
          </mxGeometry>
        </mxCell>
        <mxCell id="Bnx4yGOkbPhiIPonUfCJ-9" value="" style="endArrow=none;html=1;rounded=0;" edge="1" parent="1">
          <mxGeometry width="50" height="50" relative="1" as="geometry">
            <mxPoint x="1970" y="1190" as="sourcePoint" />
            <mxPoint x="1960" y="250" as="targetPoint" />
          </mxGeometry>
        </mxCell>
        <mxCell id="Bnx4yGOkbPhiIPonUfCJ-10" value="" style="endArrow=none;html=1;rounded=0;" edge="1" parent="1">
          <mxGeometry width="50" height="50" relative="1" as="geometry">
            <mxPoint x="1640" y="1180" as="sourcePoint" />
            <mxPoint x="1640" y="240" as="targetPoint" />
          </mxGeometry>
        </mxCell>
        <mxCell id="Bnx4yGOkbPhiIPonUfCJ-13" value="" style="rounded=0;whiteSpace=wrap;html=1;" vertex="1" parent="1">
          <mxGeometry x="180" y="250" width="201" height="930" as="geometry" />
        </mxCell>
        <mxCell id="Bnx4yGOkbPhiIPonUfCJ-14" value="&lt;font style=&quot;font-size: 48px;&quot;&gt;Lys Modus&lt;/font&gt;" style="text;html=1;align=center;verticalAlign=middle;whiteSpace=wrap;rounded=0;" vertex="1" parent="1">
          <mxGeometry x="250.5" y="390" width="60" height="180" as="geometry" />
        </mxCell>
        <mxCell id="Bnx4yGOkbPhiIPonUfCJ-15" value="&lt;font style=&quot;font-size: 48px;&quot;&gt;Mørk modus&lt;/font&gt;" style="text;html=1;align=center;verticalAlign=middle;whiteSpace=wrap;rounded=0;" vertex="1" parent="1">
          <mxGeometry x="250.5" y="934" width="60" height="30" as="geometry" />
        </mxCell>
        <mxCell id="Bnx4yGOkbPhiIPonUfCJ-17" style="edgeStyle=orthogonalEdgeStyle;rounded=0;orthogonalLoop=1;jettySize=auto;html=1;exitX=0.5;exitY=1;exitDx=0;exitDy=0;" edge="1" parent="1" source="Bnx4yGOkbPhiIPonUfCJ-15" target="Bnx4yGOkbPhiIPonUfCJ-15">
          <mxGeometry relative="1" as="geometry" />
        </mxCell>
      </root>
    </mxGraphModel>
  </diagram>
</mxfile>
